<svg xmlns="http://www.w3.org/2000/svg" viewBox="0 0 64 64" fill="none">
  <defs>
    <radialGradient id="fBallMetal" cx="40%" cy="35%" r="60%">
      <stop offset="0%" stop-color="#FFFFFF"/>
      <stop offset="50%" stop-color="#F0F2F5"/>
      <stop offset="100%" stop-color="#C8CDD5"/>
    </radialGradient>
    <linearGradient id="fPanelBlue" x1="0" y1="0" x2="1" y2="1">
      <stop offset="0%" stop-color="#0057B8"/>
      <stop offset="100%" stop-color="#003D82"/>
    </linearGradient>
    <clipPath id="fBallClip">
      <circle cx="32" cy="32" r="28"/>
    </clipPath>
  </defs>

  <!-- Ball -->
  <circle cx="32" cy="32" r="30" fill="url(#fBallMetal)" stroke="#AEB8C5" stroke-width="1"/>
  <g clip-path="url(#fBallClip)">
    <polygon points="32,16 41,23 39,35 25,35 23,23" fill="url(#fPanelBlue)" opacity="0.9"/>
    <path d="M32,16 L32,0" stroke="#AEB8C5" stroke-width="0.8"/>
    <path d="M41,23 L57,12" stroke="#AEB8C5" stroke-width="0.8"/>
    <path d="M39,35 L55,48" stroke="#AEB8C5" stroke-width="0.8"/>
    <path d="M25,35 L9,48" stroke="#AEB8C5" stroke-width="0.8"/>
    <path d="M23,23 L7,12" stroke="#AEB8C5" stroke-width="0.8"/>
    <path d="M32,16 Q42,9 41,23" fill="#D52B1E" opacity="0.25"/>
    <path d="M41,23 Q55,30 39,35" fill="#0057B8" opacity="0.18"/>
    <path d="M39,35 Q32,52 25,35" fill="#D52B1E" opacity="0.22"/>
    <path d="M25,35 Q9,30 23,23" fill="#0057B8" opacity="0.18"/>
    <path d="M23,23 Q22,9 32,16" fill="#D52B1E" opacity="0.25"/>
    <ellipse cx="27" cy="21" rx="9" ry="6" fill="#FFF" opacity="0.4" transform="rotate(-20,27,21)"/>
  </g>
  <circle cx="32" cy="32" r="30" fill="none" stroke="#0057B8" stroke-width="1.5"/>
</svg>