<?xml version="1.0" encoding="UTF-8"?>
<!DOCTYPE svg PUBLIC "-//W3C//DTD SVG 1.1//EN" "http://www.w3.org/Graphics/SVG/1.1/DTD/svg11.dtd">
<svg xmlns="http://www.w3.org/2000/svg" version="1.1" width="1500px" height="1500px" style="shape-rendering:geometricPrecision; text-rendering:geometricPrecision; image-rendering:optimizeQuality; fill-rule:evenodd; clip-rule:evenodd" xmlns:xlink="http://www.w3.org/1999/xlink">
<g><path fill="#00619e" stroke="#00619e" stroke-width="0.5" d="M 733.04,0 c 11.64,0 23.28,0 34.93,0 c 0.36,0.52 0.86,0.77 1.5,0.73 c 33.37,0.6 66.56,3.75 99.51,9.09 c 0.85,0.01 1.71,0 2.56,-0.02 c 2.44,1.01 3.41,1.13 6.11,1.01 c 1.1,0.56 2.27,0.92 3.5,1.08 c 2.93,0.44 5.86,0.96 8.77,1.56 c 2.87,0.48 5.74,0.98 8.6,1.5 c 2.09,0.57 4.19,1.13 6.29,1.68 c 1.21,0.16 2.43,0.29 3.65,0.38 c 3.62,1.17 7.31,2.08 11.07,2.74 c 1.54,-0.3 2.91,0.04 4.13,1.02 c 1.34,-0.05 2.6,0.22 3.79,0.81 c 2.84,0.6 5.66,1.31 8.44,2.12 c 3.67,0.77 7.27,1.75 10.8,2.93 c 1.36,0.17 2.71,0.37 4.06,0.57 c 0.19,0.32 0.47,0.54 0.83,0.66 c 9.52,2.71 19,5.56 28.45,8.54 c 8.28,2.65 16.49,5.47 24.62,8.45 c 0.69,0.02 1.38,0.1 2.06,0.24 c 0.43,0.52 0.97,0.89 1.62,1.11 c 10.53,3.95 21.02,7.98 31.49,12.08 c 4.56,2.23 9.18,4.35 13.88,6.35 c 0.75,0.28 1.52,0.48 2.31,0.61 c 5.5,2.87 11.12,5.55 16.84,8.05 c 4.08,1.97 8.15,3.98 12.19,6.02 c 48.73,24.46 94.29,53.84 136.67,88.14 c 0.78,0.63 1.55,1.26 2.33,1.89 c 1.25,1.04 2.51,2.08 3.75,3.12 c 0.75,0.62 1.5,1.25 2.24,1.87 c 1.23,1.04 2.47,2.08 3.71,3.11 c 1.11,0.93 2.2,1.88 3.29,2.84 c 5.59,4.87 11.15,9.79 16.68,14.74 c 6.9,6.23 13.64,12.63 20.21,19.2 c 2.97,2.95 5.95,5.9 8.92,8.84 c 4.05,4.06 8.06,8.17 12.02,12.33 c 7.68,8.25 15.27,16.59 22.76,25.02 c 1.11,1.4 2.24,2.79 3.38,4.16 c 0.78,0.9 1.56,1.8 2.34,2.7 c 1.23,1.48 2.45,2.97 3.65,4.48 c 0.62,0.75 1.24,1.5 1.86,2.25 c 0.71,0.86 1.41,1.73 2.1,2.6 c 9.6,11.89 18.89,24.01 27.87,36.37 c 0.74,1 1.47,2.01 2.18,3.03 c 11.5,16.4 22.45,33.16 32.86,50.27 c 0.61,0.97 1.19,1.96 1.76,2.96 c 5.4,9.51 10.71,19.07 15.93,28.68 c 2,3.73 3.99,7.46 5.99,11.19 c 1.65,3.71 3.43,7.36 5.34,10.95 c 2.34,4.66 4.62,9.35 6.84,14.06 c 1.74,3.9 3.37,7.83 4.91,11.82 c 0.38,0.59 0.91,0.98 1.58,1.18 c -0.62,1.87 1.69,5.02 2.23,6.91 c 3.25,7.36 6.33,14.79 9.25,22.29 c 1.68,4.21 3.25,8.48 4.72,12.78 c 2.87,7.41 5.57,14.89 8.09,22.44 c 3.65,10.94 7.12,21.95 10.38,33.03 c 2.2,9.08 4.58,18.09 7.13,27.03 c 0.38,2.18 0.81,4.36 1.29,6.52 c 0.89,3.09 1.64,6.22 2.22,9.39 c 0.57,2.97 1.14,5.94 1.71,8.92 c 0.21,0.73 0.51,1.43 0.9,2.09 c 0.27,2.68 0.65,5.32 1.14,7.95 c 0.12,0.66 0.45,1.18 0.98,1.56 c -0.15,0.78 -0.17,1.55 -0.08,2.34 c 2.66,13.53 4.88,27.14 6.68,40.82 c 1.09,10.45 2.84,21.3 3.25,31.75 c 0.02,2.24 0.33,4.44 0.94,6.59 c -0.19,3.22 -0.08,6.43 0.34,9.64 c 4.15,57.41 1.23,121 -8.91,177.72 c -0.49,3.17 -0.98,6.35 -1.47,9.52 c -1.33,5.7 -2.55,11.43 -3.65,17.17 c 0.1,1.77 -0.25,3.43 -1.04,5 c -0.9,3.93 -1.66,7.88 -2.29,11.85 c -1.63,5.87 -3.1,11.78 -4.4,17.73 c -0.75,2.6 -1.53,5.18 -2.34,7.77 c -2.44,8.85 -4.89,17.69 -7.37,26.5 c -1.99,5.3 -3.77,10.68 -5.33,16.13 c -3.76,11.25 -7.81,22.4 -12.15,33.44 c -1.31,3.26 -2.59,6.54 -3.83,9.83 c -2.86,7.11 -5.88,14.16 -9.05,21.14 c -0.94,2.11 -1.87,4.23 -2.79,6.35 c -0.98,2.22 -2.01,4.43 -3.08,6.61 c -1.08,2.29 -2.12,4.61 -3.12,6.94 c -0.66,1.42 -1.36,2.82 -2.11,4.19 c -0.94,1.76 -1.82,3.55 -2.66,5.37 c -0.68,1.49 -1.39,2.98 -2.13,4.44 c -5.37,10.4 -10.88,20.72 -16.53,30.97 c -0.41,0.73 -0.81,1.45 -1.23,2.17 c -3.5,5.93 -6.95,11.89 -10.34,17.88 c -0.58,1 -1.19,1.98 -1.82,2.94 c -1.09,1.62 -2.12,3.28 -3.09,4.96 c -0.6,0.99 -1.21,1.97 -1.83,2.94 c -1.08,1.68 -2.15,3.37 -3.21,5.07 c -3.31,5.07 -6.65,10.12 -10.02,15.16 c -5.27,7.68 -10.61,15.31 -16.02,22.9 c -3.38,4.66 -6.84,9.26 -10.37,13.8 c -1.55,2.01 -3.08,4.04 -4.59,6.09 c -3.8,4.64 -7.54,9.33 -11.21,14.08 c -0.44,0.54 -0.89,1.07 -1.35,1.59 c -1.07,1.19 -2.13,2.39 -3.18,3.6 c -2.63,3.11 -5.26,6.22 -7.89,9.34 c -1.44,1.74 -2.9,3.46 -4.4,5.15 c -1.56,1.73 -3.12,3.45 -4.69,5.18 c -1.15,1.36 -2.33,2.71 -3.53,4.02 c -2.23,2.42 -4.47,4.82 -6.72,7.22 c -1.58,1.6 -3.14,3.23 -4.67,4.88 c -10.79,11.49 -22.01,22.56 -33.64,33.2 c -1.59,1.52 -3.18,3.05 -4.77,4.59 c -3.01,2.57 -5.96,5.21 -8.86,7.92 c -1.23,1.05 -2.46,2.11 -3.69,3.17 c -1.35,1.25 -2.71,2.47 -4.09,3.67 c -0.63,0.52 -1.25,1.04 -1.87,1.55 c -1.43,1.2 -2.86,2.4 -4.29,3.6 c -1.24,1.06 -2.49,2.09 -3.76,3.12 c -2.38,2 -4.78,3.98 -7.2,5.94 c -1.71,1.38 -3.43,2.74 -5.16,4.09 c -6.94,5.42 -13.93,10.76 -20.99,16.03 c -12.56,9.26 -25.38,18.14 -38.47,26.65 c -1.12,0.77 -2.25,1.52 -3.4,2.25 c -16.93,10.69 -34.21,20.77 -51.85,30.24 c -1.02,0.56 -2.04,1.12 -3.08,1.66 c -3.24,1.6 -6.46,3.23 -9.68,4.89 c -2.09,1.11 -4.2,2.18 -6.33,3.23 c -4.33,2.02 -8.63,4.07 -12.92,6.16 c -1.97,0.99 -3.95,1.94 -5.96,2.85 c -6.69,2.94 -13.36,5.91 -20.02,8.91 c -4.02,1.56 -8.02,3.18 -11.99,4.85 c -1.72,0.78 -3.46,1.52 -5.21,2.22 c -3.83,1.35 -7.63,2.76 -11.41,4.24 c -0.6,0.14 -1.04,0.48 -1.31,1.01 c -0.81,0 -1.6,0.11 -2.37,0.34 c -3.4,1.24 -6.77,2.52 -10.12,3.86 c -7.5,2.5 -15.01,4.99 -22.53,7.45 c -8.67,2.74 -17.37,5.32 -26.1,7.76 c -7.74,2.35 -15.55,4.42 -23.44,6.22 c -6.33,1.62 -12.68,3.14 -19.03,4.56 c -7.87,1.47 -15.75,2.93 -23.64,4.39 c -0.99,0.62 -2.06,0.87 -3.23,0.75 c -0.41,0.08 -0.7,0.3 -0.86,0.67 c -0.41,-0.18 -0.83,-0.27 -1.28,-0.26 c -6.66,0.99 -13.32,2.06 -19.95,3.22 c -6.34,0.81 -12.66,1.62 -18.96,2.41 c -1.08,0.1 -2.11,0.36 -3.1,0.79 c -3.33,-0.18 -6.61,0.17 -9.83,1.05 c -2.24,-0.18 -4.47,-0.07 -6.68,0.34 c -14.65,1.48 -29.77,2.74 -44.48,2.97 c -0.64,-0.1 -1.12,0.12 -1.46,0.64 c -9.64,0 -19.28,0 -28.92,0 c -0.43,-0.51 -0.99,-0.74 -1.67,-0.69 c -3.96,0.02 -12.55,-0.7 -15.98,-0.16 c -0.4,0.17 -0.54,0.46 -0.41,0.85 c -1.65,0 -3.3,0 -4.94,0 c -0.38,-0.55 -0.9,-0.78 -1.58,-0.7 c -29.84,-0.84 -60.83,-4.02 -90.35,-8.79 c -5,-1 -10.06,-1.83 -15.16,-2.49 c -3.13,-0.31 -9.07,-2.21 -11.88,-1.79 c -0.4,-0.53 -0.93,-0.86 -1.6,-0.97 c -2.62,-0.4 -5.24,-0.81 -7.87,-1.23 c -2.09,-0.47 -4.16,-1.05 -6.2,-1.75 c -1.74,-0.41 -3.5,-0.62 -5.29,-0.63 c -1.64,-0.56 -3.31,-1.06 -5.01,-1.5 c -5.27,-1.33 -10.54,-2.62 -15.8,-3.89 c -2.29,-0.79 -4.64,-1.28 -7.04,-1.46 c -0.93,-0.63 -1.96,-1.11 -3.07,-1.46 c -2.21,-0.47 -4.41,-0.91 -6.62,-1.34 c -5.29,-1.81 -10.65,-3.49 -16.06,-5.05 c -0.76,-0.16 -1.52,-0.2 -2.29,-0.13 c -0.4,-0.51 -0.91,-0.85 -1.55,-1 c -14.86,-4.7 -29.58,-9.8 -44.16,-15.3 c -4.86,-1.8 -9.68,-3.72 -14.45,-5.75 c -2.65,-1.13 -5.34,-2.19 -8.05,-3.18 c -2,-0.83 -3.98,-1.72 -5.93,-2.66 c -7.7,-3.33 -15.36,-6.75 -22.97,-10.27 c -3.38,-1.57 -6.72,-3.2 -10.05,-4.88 c -45.15,-22.18 -87.66,-48.62 -127.53,-79.3 c -1.19,-0.9 -2.37,-1.8 -3.55,-2.71 c -5.9,-4.73 -11.8,-9.46 -17.7,-14.19 c -1.11,-0.93 -2.22,-1.86 -3.32,-2.8 c -0.89,-0.76 -1.79,-1.51 -2.68,-2.27 c -1.44,-1.21 -2.87,-2.44 -4.31,-3.66 c -0.88,-0.75 -1.76,-1.5 -2.64,-2.25 c -1.79,-1.6 -3.57,-3.21 -5.34,-4.84 c -1.26,-1.09 -2.53,-2.18 -3.79,-3.27 c -14.84,-13.45 -29.19,-27.41 -43.05,-41.88 c -2.96,-3.22 -5.93,-6.42 -8.91,-9.62 c -1.08,-1.14 -2.15,-2.3 -3.21,-3.47 c -3.78,-4.34 -7.61,-8.62 -11.51,-12.85 c -1.17,-1.43 -2.36,-2.85 -3.55,-4.27 c -0.76,-0.88 -1.52,-1.75 -2.28,-2.63 c -1.24,-1.47 -2.46,-2.97 -3.66,-4.48 c -0.92,-1.1 -1.85,-2.19 -2.8,-3.27 c -0.62,-0.74 -1.23,-1.48 -1.83,-2.23 c -3.34,-4.29 -6.72,-8.56 -10.13,-12.8 c -1.64,-2.07 -3.28,-4.16 -4.89,-6.27 c -3.4,-4.59 -6.79,-9.19 -10.18,-13.78 c -2.69,-3.63 -5.34,-7.3 -7.93,-10.99 c -2.24,-3.46 -4.58,-6.84 -7.01,-10.15 c -3.93,-5.99 -7.85,-11.99 -11.78,-17.98 c -2.34,-4.03 -4.78,-7.99 -7.32,-11.9 c -1.04,-1.67 -2.05,-3.36 -3.03,-5.07 c -5.1,-8.58 -10.05,-17.23 -14.85,-25.98 c -0.37,-0.67 -0.74,-1.35 -1.1,-2.03 c -4.04,-7.66 -8.04,-15.34 -11.99,-23.04 c -0.7,-1.39 -1.37,-2.78 -2.02,-4.19 c -2.64,-5.56 -5.28,-11.11 -7.92,-16.67 c -0.67,-1.34 -1.31,-2.7 -1.92,-4.07 c -0.98,-2.32 -1.97,-4.64 -2.97,-6.95 c -7.34,-16.48 -14.03,-33.22 -20.06,-50.22 c -2.99,-9.11 -6.07,-18.2 -9.22,-27.27 c -0.2,-0.86 -0.33,-1.73 -0.4,-2.62 c -0.85,-2.46 -1.72,-4.91 -2.62,-7.35 c -0.42,-1.93 -0.88,-3.84 -1.41,-5.74 c -1.39,-4.66 -2.68,-9.34 -3.88,-14.05 c -0.75,-1.14 -1.1,-2.39 -1.05,-3.75 c -2.59,-9.67 -5.02,-19.36 -7.31,-29.09 c -0.59,-1.7 -0.83,-3.46 -0.71,-5.26 c -1.1,-3.62 -1.97,-7.29 -2.63,-11.01 c -0.12,-0.97 -0.19,-1.96 -0.22,-2.94 c -0.35,-1.01 -0.72,-2.01 -1.08,-3.02 c 0,-1.01 -0.03,-2.02 -0.07,-3.03 c -0.7,-1.82 -1.09,-3.72 -1.18,-5.68 c -12.35,-69.56 -14.45,-139.1 -7.43,-209.39 c 0.66,-6.82 1.53,-13.62 2.6,-20.38 c 0.24,-1.21 0.27,-2.44 0.09,-3.67 c 0.73,-2.36 1.49,-4.46 1,-6.99 c 0.4,-1.35 0.75,-2.71 1.07,-4.08 c 0.58,-2.93 0.93,-5.9 1.05,-8.92 c 0.91,-1.94 1.2,-3.97 0.88,-6.09 c 0.92,-1.82 1.32,-3.75 1.2,-5.79 c 0.61,-2.89 1.24,-5.77 1.89,-8.65 c 0.51,-3.31 1.18,-6.58 2.01,-9.81 c -0.32,-1.39 -0.05,-2.65 0.83,-3.79 c 0.83,-3.91 1.58,-7.82 2.24,-11.75 c 1.36,-4.65 2.57,-9.33 3.62,-14.03 c 1.52,-6.55 3.24,-13.03 5.18,-19.46 c 2.15,-7.64 4.33,-15.24 6.56,-22.81 c 6.77,-21.43 14.49,-42.51 23.17,-63.25 c 0.94,-2.25 1.88,-4.5 2.82,-6.75 c 3.2,-7.45 6.52,-14.86 9.95,-22.22 c 8.89,-18.96 18.52,-37.54 28.89,-55.73 c 0.42,-0.73 0.84,-1.46 1.27,-2.18 c 2.62,-4.32 5.18,-8.67 7.67,-13.07 c 0.4,-0.66 0.81,-1.31 1.22,-1.97 c 18.28,-29.89 38.51,-58.4 60.69,-85.52 c 0.77,-1.04 1.57,-2.07 2.39,-3.07 c 0.33,-0.38 0.66,-0.77 0.99,-1.15 c 0.53,-0.59 1.07,-1.18 1.6,-1.77 c 1.2,-1.42 2.38,-2.85 3.54,-4.3 c 5.81,-6.61 11.64,-13.19 17.51,-19.75 c 1.3,-1.47 2.64,-2.91 4.01,-4.32 c 2.1,-2.2 4.16,-4.45 6.16,-6.74 c 16.03,-16.78 32.78,-32.82 50.24,-48.1 c 0.91,-0.67 1.77,-1.4 2.57,-2.2 c 1.39,-1.27 2.81,-2.52 4.25,-3.75 c 2.97,-2.36 5.88,-4.8 8.72,-7.31 c 1.06,-0.92 2.14,-1.81 3.24,-2.67 c 6.22,-5 12.49,-9.93 18.82,-14.8 c 1.4,-1.12 2.8,-2.23 4.23,-3.31 c 36.48,-27.46 75.13,-51.42 115.95,-71.87 c 6.24,-3.16 12.53,-6.22 18.86,-9.18 c 4.42,-2.18 8.91,-4.22 13.47,-6.11 c 9.19,-3.98 18.41,-7.88 27.66,-11.7 c 2.76,-0.99 5.52,-2.01 8.27,-3.04 c 14.82,-5.65 29.79,-10.85 44.93,-15.58 c 0.31,-0.12 0.5,-0.34 0.56,-0.65 c 0.86,0.03 1.7,-0.05 2.54,-0.24 c 2.69,-0.68 5.29,-1.57 7.81,-2.66 c 6.01,-1.51 12,-3.04 17.98,-4.59 c 1.7,-0.61 3.42,-1.2 5.16,-1.76 c 4.55,-0.86 9.08,-1.9 13.57,-3.11 c 4.71,-1.17 9.4,-2.35 14.07,-3.54 c 4.68,-0.85 9.36,-1.68 14.04,-2.49 c 7.58,-1.7 15.19,-3.17 22.86,-4.4 c 1.79,-0.48 3.62,-0.7 5.48,-0.66 c 1,-0.29 1.99,-0.63 2.96,-1 c 1.03,-0.15 3.07,0.63 3.76,-0.44 c 1.1,0 2.16,-0.2 3.2,-0.58 c 2.41,0.39 4.74,0.09 6.97,-0.9 c 1.24,0.09 2.48,0.05 3.72,-0.13 c 25.65,-3.34 52.68,-5.73 78.45,-6.04 c 0.67,0.09 1.17,-0.13 1.51,-0.68 Z M 60.5,749.22 c 0.2,162.32 54.56,314.74 157.58,440.23 c 157.61,190.04 397.5,280.21 641.42,242.46 c 202.13,-33.28 373.59,-149.27 480.87,-324.21 c 132.43,-219.35 132.77,-494.51 0.61,-714.13 c -134.13,-220.57 -374.16,-347.29 -631.48,-332.58 c -228.62,14.33 -429.38,135.74 -549.52,331.56 c -65.16,108.57 -99.22,229.37 -99.48,356.67 Z M 763.72,365.78 c 0.1,-22.51 0.03,-45 -0.21,-67.48 c -0.35,0.69 -0.49,1.43 -0.45,2.22 c 0.07,21.33 0.07,42.67 0,64 c -0.09,0.61 0.13,1.03 0.66,1.26 c -0.24,0.57 -0.68,0.92 -1.31,1.04 c -13.99,4.44 -31.18,4.48 -44.91,-0.81 c -0.11,-0.19 -0.22,-0.39 -0.33,-0.58 c -0.17,-68.64 -0.2,-137.29 -0.09,-205.93 c 0.09,-0.73 0.45,-1.29 1.07,-1.66 c 13.91,-2.57 28.26,-3.43 42.35,-4.64 c 35.62,-2.41 81.51,0.6 95.07,40.51 c 9.4,31.96 6.7,76.45 -26.61,93.71 c -19.29,11.17 -40.92,10.65 -62.5,10.45 c -1.54,0.15 -2.19,1.02 -1.94,2.6 c 0.04,21.58 0.02,43.15 -0.06,64.72 c -0.13,0.34 -0.38,0.54 -0.74,0.59 Z M 521.02,365.98 c 0.02,-0.68 0.12,-1.36 0.3,-2.02 c 21.88,-69.26 43.57,-138.69 65.51,-207.84 c 0.67,-0.83 1.56,-1.18 2.66,-1.07 c 15.01,0.02 30.01,0.02 45.01,0.01 c 1.58,-0.36 2.69,0.16 3.34,1.55 c 16.98,58.93 34.14,117.79 51.49,176.56 c 3,10.94 6.01,21.87 9.01,32.8 c -13.88,5.67 -32.19,5.65 -46.13,0.12 c -1.75,-1.49 -11.26,-32.86 -12.86,-37.7 c -0.29,-0.91 -0.9,-1.34 -1.84,-1.28 c -18.69,4.52 -33.91,4.26 -52.63,1.28 c -2.11,-0.69 -5.18,-2.42 -6.5,0.41 c -3.26,9.68 -6.31,19.35 -9.16,29.01 c -1.44,2.63 -1.5,5.91 -3.4,8.32 c -3.32,1.11 -6.65,2.14 -9.99,3.12 c -8.71,1.47 -27.36,1.39 -34.81,-3.27 Z M 1001.18,198.2 c -23.23,-0.02 -46.46,-0.03 -69.69,-0.03 c -1.08,0.18 -2.39,-0.38 -3.18,0.6 c -0.24,11.9 -0.33,23.82 -0.25,35.74 c -0.13,0.88 0.08,1.64 0.63,2.29 c 17.6,0.22 35.21,0.27 52.83,0.17 c 1.54,0.09 2.19,0.92 1.95,2.5 c -0.02,13.02 -0.02,26.04 0,39.06 c 0.27,1.59 -0.37,2.47 -1.92,2.64 c -17.91,-0.12 -35.82,-0.04 -53.71,0.23 c -0.94,0.63 -0.52,2.16 -0.66,3.1 c 0.07,27 0.01,54 -0.17,80.99 c -0.35,0.66 -0.91,1.06 -1.66,1.2 c -13.04,3.78 -26.59,4.48 -39.88,1.56 c -2.65,0.45 -1.36,0.32 -3.23,-0.91 c -1.38,-0.33 -2.73,-0.78 -4.03,-1.35 c 0.49,-0.01 0.93,-0.15 1.33,-0.44 c -0.57,-0.94 -0.82,-1.96 -0.78,-3.07 c -0.08,-68.98 0.01,-137.94 0.28,-206.89 c 0.32,-0.53 0.8,-0.77 1.42,-0.73 c 40,-0.04 79.99,0.02 119.96,0.18 c 0.63,0.68 0.88,1.48 0.77,2.41 c 0,13.59 0,27.17 -0.01,40.75 Z M 764.52,254 c -0.25,1.67 0.42,2.6 2.01,2.8 c 29.66,1.87 47.22,-7.82 43.26,-40.29 c -2.96,-17.96 -19.16,-23.07 -35.29,-22.59 c -3.15,0.05 -6.26,0.33 -9.33,0.85 c -0.47,0.84 -0.69,1.75 -0.66,2.72 c 0.03,18.84 0.03,37.67 0.01,56.51 Z M 762.98,227.06 c 0.08,9.16 0.1,18.33 0.07,27.5 c -0.05,0.74 0.09,1.44 0.44,2.08 c 0.23,-12.7 0.32,-25.42 0.29,-38.16 c 0.04,-7.76 -0.07,-15.51 -0.33,-23.23 c -0.38,0.67 -0.53,1.41 -0.45,2.21 c 0.12,9.87 0.11,19.73 -0.02,29.6 Z M 589.33,290.63 c 4.44,2.79 37.54,3.09 38.65,-0.17 c 0.14,-0.87 0.11,-1.73 -0.1,-2.59 c -5.75,-24.89 -11.58,-49.76 -17.49,-74.6 c -7.12,25.75 -14.13,51.53 -21.06,77.36 Z M 159.22,510.93 c 12.78,-33.07 29.37,-64.89 47.95,-95.18 c 0.29,-0.26 0.6,-0.26 0.9,-0.01 c 93.37,68.17 186.74,136.36 280.09,204.55 c 0.41,0.58 0.52,1.21 0.34,1.9 c -16.32,29.61 -27.31,73.55 -28.82,107.13 c -0.47,0.53 -1.02,0.61 -1.67,0.24 c -3.66,-2.73 -7.39,-5.35 -11.2,-7.84 c -87.13,-64.07 -175.29,-127.98 -262.06,-191.96 c -4.16,-3.04 -23.3,-16.58 -25.53,-18.83 Z M 1011.91,620.98 c 92.73,-68.65 186.14,-136.09 279.14,-204.43 c 0.97,-0.98 1.86,-0.95 2.68,0.09 c 16.38,26.44 29.82,53.32 42.56,81.49 c 1.24,3.6 2.64,7.13 4.21,10.61 c 0.59,1.1 0.5,2.13 -0.25,3.1 c -99.13,72.44 -198.24,144.91 -297.33,217.41 c -1.1,0.92 -1.79,0.69 -2.07,-0.7 c -1.9,-20.97 -5.13,-40.34 -11.03,-60.65 c -4.84,-16.19 -11.18,-31.41 -17.91,-46.92 Z M 845.29,1026.97 c -0.13,-1.52 1.96,-1.45 2.84,-2.28 c 32.66,-10.87 67.44,-31.75 93.43,-54.56 c 0.44,-0.3 0.91,-0.38 1.42,-0.22 c 89.7,72.14 179.34,144.35 268.93,216.64 c 1.09,0.69 1.33,1.61 0.73,2.74 c -23.91,25.23 -49.7,48.38 -77.36,69.44 c -0.64,0.53 -1.34,0.64 -2.11,0.33 c -96.14,-77.3 -191.89,-154.53 -287.88,-232.09 Z M 287.07,1187.99 c 89.99,-72.88 180.14,-145.55 270.45,-218.01 c 0.65,-0.1 1.23,0.07 1.74,0.49 c 21.15,18.36 44.45,33.38 69.9,45.06 c 8.77,3.74 17.56,7.37 26.36,10.88 c -95.94,77.84 -192.11,155.42 -288.51,232.74 c -0.74,0.15 -1.39,-0.04 -1.96,-0.54 c -27.55,-20.95 -53.24,-43.97 -77.07,-69.07 c -0.41,-0.46 -0.71,-0.97 -0.91,-1.55 Z M 426.46,1293.97 c 0,-0.57 0.13,-1.11 0.38,-1.62 c 15.53,-26.81 31.01,-53.66 46.44,-80.54 c 0.6,-0.41 1.25,-0.48 1.94,-0.2 c 20.53,7.15 53.72,24.27 42.91,51.25 c -8.59,21.29 -24.71,29.45 -46.35,19.52 c -4.19,-2.02 -8.31,-4.16 -12.37,-6.42 c -0.84,0.1 -1.44,0.54 -1.81,1.31 c -4.8,8.45 -9.67,16.87 -14.61,25.24 c -0.65,0.42 -1.32,0.46 -2.01,0.13 c -4.88,-2.82 -9.72,-5.71 -14.52,-8.67 Z M 985.26,1253.31 c 6.21,-3.14 12.38,-6.38 18.5,-9.72 c 0.49,-0.22 1,-0.24 1.51,-0.06 c 10.48,8.85 21.35,17.18 32.62,25.01 c 1.41,0.92 1.63,-1.14 1.51,-2 c -0.22,-12.86 -0.63,-25.35 -2.2,-38.05 c -0.13,-0.91 -0.07,-1.8 0.19,-2.68 c 3.89,-2.03 7.73,-4.18 11.5,-6.46 c 1.98,-0.81 3.92,-1.72 5.82,-2.73 c 0.38,-0.22 0.71,-0.18 1.01,0.12 c 1.35,21.9 1.8,43.81 1.37,65.75 c 2.14,5.52 12.96,24.79 16.42,31.51 c 0.38,0.69 0.4,1.39 0.06,2.09 c -5.19,2.98 -10.48,5.78 -15.87,8.39 c -0.17,-0.08 -0.34,-0.16 -0.51,-0.25 c -5.56,-10.7 -11.26,-21.31 -17.1,-31.85 c -18.55,-12.54 -37.41,-24.97 -54.83,-39.07 Z M 468.49,1259.15 c 9.29,6.6 23.27,13.74 29.8,-0.45 c 6.37,-11.61 -5.88,-18.6 -14.62,-22.92 c -0.55,-0.32 -1.13,-0.38 -1.73,-0.2 c -4.29,7.05 -8.49,14.17 -12.59,21.36 c -0.34,0.71 -0.63,1.45 -0.86,2.21 Z M 493.39,1331.65 c 0.24,-0.66 0.57,-1.27 0.99,-1.84 c 20.75,-25.42 42.24,-51.22 65.32,-74.55 c 0.63,-0.66 1.37,-0.85 2.22,-0.55 c 5.18,1.98 10.27,4.13 15.3,6.43 c 0.31,0.76 0.44,1.54 0.41,2.36 c 0.25,32.9 -2.04,65.25 -4.69,97.99 c -0.18,1.47 -0.97,1.89 -2.36,1.28 c -5.42,-2.17 -10.8,-4.4 -16.16,-6.69 c -1.82,-2.59 2.48,-20.18 0.8,-21.77 c -3.21,-0.37 -6.4,-0.9 -9.56,-1.57 c -4.83,-1.06 -9.36,-2.86 -13.6,-5.39 c -2.25,-1.54 -4.46,-3.12 -6.63,-4.73 c -0.66,-0.06 -1.19,0.16 -1.59,0.68 c -2,2.48 -10.59,14.33 -12.5,15.17 c -2.85,-0.87 -5.68,-1.83 -8.49,-2.89 c -3.18,-1.26 -6.33,-2.57 -9.46,-3.93 Z M 941.94,1315 c -0.01,-15.69 0.5,-31.37 1.52,-47.02 c 0.28,-0.68 0.74,-1.19 1.39,-1.53 c 4.76,-1.52 9.49,-3.12 14.2,-4.8 c 0.65,-0.28 1.31,-0.3 1.98,-0.08 c 22.42,24.99 42.2,51.51 62.05,78.61 c 0.56,0.75 0.5,1.41 -0.19,1.97 c -3.96,1.29 -7.86,2.74 -11.68,4.35 c -1.81,-0.11 -5.04,2.14 -6.56,1.22 c -3.83,-5.07 -7.58,-10.21 -11.27,-15.41 c -0.4,-0.69 -1,-1.1 -1.77,-1.21 c -2.53,1.45 -5.11,2.82 -7.72,4.13 c -7.58,3.66 -13.76,5.29 -22.13,6.09 c -0.65,0.56 -0.93,1.28 -0.84,2.16 c -0.11,4.8 1.06,15.41 0.5,19.53 c -4.67,2.01 -9.4,3.86 -14.19,5.52 c -1.43,0.03 -4.53,1.77 -4.33,-0.99 c -0.61,-17.51 -0.93,-35.02 -0.96,-52.54 Z M 588.96,1367.01 c 6.93,-30.49 13.59,-61.12 21.12,-91.4 c 2.67,-1.92 25.07,2.33 29.33,3.77 c 19.89,5.67 32.39,18.1 26.39,40.07 c -2.76,11.01 -9.09,17.97 -20.11,20.77 c -0.44,0.27 -0.63,0.66 -0.58,1.17 c 4.71,12.72 8.27,25.77 10.65,39.13 c 0.04,0.97 0.81,2.57 -0.48,3.02 c -2.12,-0.62 -4.28,-1 -6.48,-1.13 c -0.59,-0.24 -1.16,-0.5 -1.72,-0.81 c -3.81,-0.79 -7.57,-1.7 -11.28,-2.74 c -2.7,-3.87 -7.22,-28.55 -8.89,-35 c -0.76,-3.45 -2.71,-7.86 -3.32,-11.12 c 0.1,-0.14 0.2,-0.28 0.3,-0.42 c 10.4,-5.03 26.56,-12.08 22.88,-26.42 c -3.43,-7.1 -13.22,-9.28 -20.32,-10.15 c -1.02,0.06 -1.67,0.59 -1.94,1.59 c -5.56,24.05 -11.09,48.09 -16.59,72.15 c -0.22,0.94 -0.55,1.84 -0.98,2.7 c -5.71,-1.22 -12.13,-1.93 -17.5,-4.13 c -0.32,-0.28 -0.48,-0.63 -0.48,-1.05 Z M 536.16,1307 c 2.84,5.37 14.46,9.4 20.39,9.19 c 0.63,0.03 1.11,-0.21 1.44,-0.74 c 0.84,-7.96 1.46,-15.95 1.85,-23.95 c 0.28,-4.01 0.4,-8.01 0.36,-12 c -0.36,-0.4 -0.73,-0.41 -1.11,-0.01 c -7.71,9.11 -15.36,18.28 -22.93,27.51 Z M 842.38,1292.13 c 0.11,-0.62 0.5,-0.96 1.16,-1.01 c 5.34,-0.87 10.67,-1.82 15.98,-2.86 c 0.52,-0.07 0.99,0.04 1.4,0.34 c 3.5,19.05 6.92,38.12 10.26,57.21 c 0.74,4.83 2.48,9.25 5.23,13.28 c 8.47,11.1 26.5,4.15 26.36,-10.59 c -2.19,-20.96 -7.57,-43.87 -10.7,-64.97 c 0.13,-0.85 0.63,-1.29 1.5,-1.33 c 5.31,-0.81 10.61,-1.71 15.9,-2.7 c 0.46,-0.17 0.87,-0.08 1.21,0.27 c 3.3,16.54 6.24,33.13 8.82,49.76 c 3.53,19.22 5.97,34.02 -10.77,47.69 c -25.09,13.12 -48.87,5.88 -55.35,-22.93 c -3.7,-20.71 -7.37,-41.43 -11,-62.16 Z M 958.9,1289 c -0.03,11.34 0.23,22.67 0.77,33.98 c 0.22,0.34 0.54,0.51 0.95,0.53 c 7.53,-0.21 14.32,-2.54 20.38,-7 c 0.77,-0.73 0.8,-1.52 0.1,-2.35 c -6.51,-8.78 -13.14,-17.48 -19.87,-26.09 c -1.78,-2.35 -2.56,-2.03 -2.33,0.93 Z M 665.93,1385 c 12.1,-31.4 25.87,-62.27 41.26,-92.22 c 0.67,-0.54 1.44,-0.77 2.3,-0.7 c 5.47,0.53 10.92,1.14 16.35,1.82 c 3.2,10.64 6.42,21.28 9.63,31.93 c 3.07,14.21 7.31,28.49 10.11,42.66 c 1.83,7.9 3.51,15.82 5.02,23.77 c -0.57,0.56 -1.26,0.76 -2.08,0.59 c -3.03,-0.55 -16.12,-0.84 -17.72,-2.07 c -1.36,-5.65 -2.71,-11.3 -4.03,-16.95 c -0.29,-1.33 0.31,-3.16 -1.29,-3.86 c -9.99,-0.99 -19.99,-1.93 -29.99,-2.83 c -1.25,-0.33 -2.16,0.06 -2.72,1.18 c -2.5,6.16 -5.01,12.31 -7.52,18.45 c -0.54,0.31 -1.11,0.44 -1.72,0.38 c -2.45,-0.47 -16.69,-0.87 -17.6,-2.15 Z M 763.09,1342 c -0.82,-39.06 32.58,-60.22 67.84,-43.27 c 0.94,0.67 1.21,1.57 0.81,2.7 c -1.41,5.13 -2.91,10.2 -4.49,15.23 c -0.43,0.09 -0.85,0.06 -1.26,-0.09 c -19.27,-9.9 -41.31,-4.34 -42.85,19.93 c -1.85,22.07 5.48,42.14 31.34,38.32 c 1.65,0.09 2.47,-0.68 2.45,-2.3 c -0.65,-10.32 -0.96,-20.65 -0.93,-30.98 c 0.33,-0.54 0.8,-0.81 1.43,-0.82 c 5.63,-0.4 11.26,-0.58 16.89,-0.53 c 0.56,0.65 0.79,1.41 0.68,2.3 c 0.7,15 1.09,30 1.19,44.99 c -3.92,5.35 -30.1,6.92 -36.64,6.18 c -26.56,-3.19 -36.87,-27.65 -36.46,-51.66 Z M 699.77,1349.06 c 0.08,0.44 0.32,0.76 0.73,0.95 c 6.12,1.04 13.67,1.29 20.02,1.94 c 0.88,0.18 1.64,-0.03 2.26,-0.63 c -0.66,-4.2 -1.48,-8.37 -2.46,-12.53 c -1.9,-7.89 -3.88,-15.73 -5.95,-23.51 c -0.36,0.1 -0.62,0.33 -0.78,0.67 c -4.63,11.03 -9.23,22.06 -13.82,33.11 Z"/></g>
<g><path fill="#ffffff" stroke="#ffffff" stroke-width="0.5" d="M 60.5,749.22 c 0.26,-127.3 34.32,-248.1 99.48,-356.67 c 120.14,-195.82 320.9,-317.23 549.52,-331.56 c 257.32,-14.71 497.35,112.01 631.48,332.58 c 132.16,219.62 131.82,494.78 -0.61,714.13 c -107.28,174.94 -278.74,290.93 -480.87,324.21 c -243.92,37.75 -483.81,-52.42 -641.42,-242.46 c -103.02,-125.49 -157.38,-277.91 -157.58,-440.23 Z M 763.72,365.78 c 0.36,-0.05 0.61,-0.25 0.74,-0.59 c 0.08,-21.57 0.1,-43.14 0.06,-64.72 c -0.25,-1.58 0.4,-2.45 1.94,-2.6 c 21.58,0.2 43.21,0.72 62.5,-10.45 c 33.31,-17.26 36.01,-61.75 26.61,-93.71 c -13.56,-39.91 -59.45,-42.92 -95.07,-40.51 c -14.09,1.21 -28.44,2.07 -42.35,4.64 c -0.62,0.37 -0.98,0.93 -1.07,1.66 c -0.11,68.64 -0.08,137.29 0.09,205.93 c 0.11,0.19 0.22,0.39 0.33,0.58 c 13.73,5.29 30.92,5.25 44.91,0.81 c 0.63,-0.12 1.07,-0.47 1.31,-1.04 Z M 878.21,365.99 c 1.3,0.57 2.65,1.02 4.03,1.35 c 1.87,1.23 0.58,1.36 3.23,0.91 c 13.29,2.92 26.84,2.22 39.88,-1.56 c 0.75,-0.14 1.31,-0.54 1.66,-1.2 c 0.18,-26.99 0.24,-53.99 0.17,-80.99 c 0.14,-0.94 -0.28,-2.47 0.66,-3.1 c 17.89,-0.27 35.8,-0.35 53.71,-0.23 c 1.55,-0.17 2.19,-1.05 1.92,-2.64 c -0.02,-13.02 -0.02,-26.04 0,-39.06 c 0.24,-1.58 -0.41,-2.41 -1.95,-2.5 c -17.62,0.1 -35.23,0.05 -52.83,-0.17 c -0.55,-0.65 -0.76,-1.41 -0.63,-2.29 c -0.08,-11.92 0.01,-23.84 0.25,-35.74 c 0.79,-0.98 2.1,-0.42 3.18,-0.6 c 23.23,0 46.46,0.01 69.69,0.03 c 1.07,-0.08 1.61,-0.65 1.61,-1.72 c -0.01,-13.66 -0.01,-27.31 0,-40.97 c 0.09,-0.81 -0.11,-1.52 -0.61,-2.13 c -40.89,-0.24 -81.78,-0.33 -122.68,-0.26 c -0.55,-0.05 -1,0.13 -1.35,0.54 c -0.31,70.78 -0.29,141.56 0.06,212.33 Z M 521.02,365.98 c 7.45,4.66 26.1,4.74 34.81,3.27 c 3.34,-0.98 6.67,-2.01 9.99,-3.12 c 1.9,-2.41 1.96,-5.69 3.4,-8.32 c 2.85,-9.66 5.9,-19.33 9.16,-29.01 c 1.32,-2.83 4.39,-1.1 6.5,-0.41 c 18.72,2.98 33.94,3.24 52.63,-1.28 c 0.94,-0.06 1.55,0.37 1.84,1.28 c 1.6,4.84 11.11,36.21 12.86,37.7 c 13.94,5.53 32.25,5.55 46.13,-0.12 c -3,-10.93 -6.01,-21.86 -9.01,-32.8 c -17.35,-58.77 -34.51,-117.63 -51.49,-176.56 c -0.65,-1.39 -1.76,-1.91 -3.34,-1.55 c -15,0.01 -30,0.01 -45.01,-0.01 c -1.1,-0.11 -1.99,0.24 -2.66,1.07 c -21.94,69.15 -43.63,138.58 -65.51,207.84 c -0.18,0.66 -0.28,1.34 -0.3,2.02 Z M 764.52,254 c 0.02,-18.84 0.02,-37.67 -0.01,-56.51 c -0.03,-0.97 0.19,-1.88 0.66,-2.72 c 3.07,-0.52 6.18,-0.8 9.33,-0.85 c 16.13,-0.48 32.33,4.63 35.29,22.59 c 3.96,32.47 -13.6,42.16 -43.26,40.29 c -1.59,-0.2 -2.26,-1.13 -2.01,-2.8 Z M 589.33,290.63 c 6.93,-25.83 13.94,-51.61 21.06,-77.36 c 5.91,24.84 11.74,49.71 17.49,74.6 c 0.21,0.86 0.24,1.72 0.1,2.59 c -1.11,3.26 -34.21,2.96 -38.65,0.17 Z M 263.95,338.01 c 2.03,1.83 4.14,3.57 6.33,5.22 c 91.18,66.55 182.3,133.08 273.38,199.6 c 0.85,0.18 1.59,-0.03 2.23,-0.63 c 26.66,-26.14 57.15,-46.53 91.49,-61.19 c 0.15,-0.49 -0.01,-0.87 -0.49,-1.13 c -98.79,-72.33 -197.64,-144.56 -296.55,-216.72 c -0.86,-0.3 -1.66,-0.19 -2.41,0.34 c -25.36,21.58 -48.92,44.97 -70.67,70.18 c -1.26,1.33 -2.36,2.77 -3.31,4.33 Z M 863.12,481.01 c 35.09,15.99 63.96,34.64 91.81,61.53 c 0.45,0.35 0.95,0.47 1.51,0.35 c 93.3,-67.95 186.54,-136.01 279.72,-204.16 c 0.3,-0.31 0.36,-0.67 0.17,-1.06 c -5.43,-6.7 -11.1,-13.2 -16.99,-19.51 c -17.9,-19.42 -36.91,-37.69 -57.03,-54.8 c -0.54,-0.39 -1.13,-0.52 -1.78,-0.39 c -15.89,11.49 -31.8,22.93 -47.73,34.31 c -5.61,4.42 -11.31,8.71 -17.1,12.89 c -77.19,56.14 -154.37,112.92 -231.68,169.33 c -0.49,0.39 -0.79,0.89 -0.9,1.51 Z M 159.22,510.93 c 2.23,2.25 21.37,15.79 25.53,18.83 c 86.77,63.98 174.93,127.89 262.06,191.96 c 3.81,2.49 7.54,5.11 11.2,7.84 c 0.65,0.37 1.2,0.29 1.67,-0.24 c 1.51,-33.58 12.5,-77.52 28.82,-107.13 c 0.18,-0.69 0.07,-1.32 -0.34,-1.9 c -93.35,-68.19 -186.72,-136.38 -280.09,-204.55 c -0.3,-0.25 -0.61,-0.25 -0.9,0.01 c -18.58,30.29 -35.17,62.11 -47.95,95.18 Z M 1011.91,620.98 c 6.73,15.51 13.07,30.73 17.91,46.92 c 5.9,20.31 9.13,39.68 11.03,60.65 c 0.28,1.39 0.97,1.62 2.07,0.7 c 99.09,-72.5 198.2,-144.97 297.33,-217.41 c 0.75,-0.97 0.84,-2 0.25,-3.1 c -1.57,-3.48 -2.97,-7.01 -4.21,-10.61 c -12.74,-28.17 -26.18,-55.05 -42.56,-81.49 c -0.82,-1.04 -1.71,-1.07 -2.68,-0.09 c -93,68.34 -186.41,135.78 -279.14,204.43 Z M 527.17,686.18 c 0.23,0.77 0.68,1.36 1.35,1.79 c 45.31,32.77 90.56,65.6 135.77,98.48 c 0.29,1.02 0.22,2.01 -0.22,2.99 c -17.42,53.35 -34.92,106.67 -52.5,159.96 c 0.45,0.24 0.91,0.21 1.37,-0.11 c 44.14,-32.48 88.35,-64.88 132.64,-97.18 c 1.16,-0.64 3.51,-3.04 4.83,-2.9 c 46.06,33.43 92.08,66.89 138.06,100.4 c 0.32,-0.21 0.39,-0.49 0.23,-0.85 c -17.65,-53.16 -35.16,-106.38 -52.51,-159.66 c -1.04,-2.65 0.89,-3.59 2.73,-4.89 c 45.03,-32.49 89.98,-65.08 134.84,-97.78 c -1.38,-0.35 -2.8,-0.49 -4.26,-0.41 c -54.68,0.03 -109.35,0.17 -164.02,0.43 c -0.98,0.07 -1.87,-0.17 -2.68,-0.71 c -17.13,-52.73 -34.18,-105.46 -51.14,-158.18 c -0.45,-1.54 0.14,-2.96 -1.95,-3.22 c -3.96,12.05 -7.83,24.08 -11.6,36.09 c -0.47,1.98 -1.7,2.83 -1.66,5.15 c -7.78,24.1 -15.65,47.88 -23.19,71.96 c -3.81,11.71 -8.38,25.49 -11.89,37.02 c -1.19,3.87 -2.53,7.67 -4.03,11.4 c -0.9,0.4 -1.85,0.56 -2.84,0.49 c -55.78,-0.32 -111.56,-0.41 -167.33,-0.27 Z M 173.28,1021.1 c 0.02,0.63 0.17,1.23 0.45,1.81 c 14.89,31.42 32.22,61.43 52,90.03 c 0.4,0.53 0.92,0.7 1.56,0.49 c 89.95,-72.47 179.88,-144.96 269.79,-217.47 c 0.14,-0.53 0.08,-1.03 -0.19,-1.51 c -18.2,-32.23 -30.58,-67.88 -35.29,-104.67 c -0.48,-0.36 -0.98,-0.36 -1.51,0.02 c -1.64,1.28 -3.28,2.57 -4.92,3.86 c -93.74,75.75 -187.54,151.28 -281.39,226.61 c -0.32,0.19 -0.48,0.47 -0.5,0.83 Z M 1003.21,894.99 c 0.07,0.6 0.34,1.11 0.79,1.51 c 89.47,72.24 178.94,144.24 268.48,216.51 c 0.7,0.58 1.38,0.58 2.05,0 c 19.78,-28.49 37.11,-58.41 51.99,-89.74 c 0.44,-0.85 0.48,-1.71 0.12,-2.58 c -94.79,-76.45 -189.57,-152.92 -284.32,-229.42 c -0.71,-0.36 -3.08,-3.06 -3.41,-1.16 c -5.42,37.91 -17.06,71.62 -35.7,104.88 Z M 845.29,1026.97 c 95.99,77.56 191.74,154.79 287.88,232.09 c 0.77,0.31 1.47,0.2 2.11,-0.33 c 27.66,-21.06 53.45,-44.21 77.36,-69.44 c 0.6,-1.13 0.36,-2.05 -0.73,-2.74 c -89.59,-72.29 -179.23,-144.5 -268.93,-216.64 c -0.51,-0.16 -0.98,-0.08 -1.42,0.22 c -25.99,22.81 -60.77,43.69 -93.43,54.56 c -0.88,0.83 -2.97,0.76 -2.84,2.28 Z M 287.07,1187.99 c 0.2,0.58 0.5,1.09 0.91,1.55 c 23.83,25.1 49.52,48.12 77.07,69.07 c 0.57,0.5 1.22,0.69 1.96,0.54 c 96.4,-77.32 192.57,-154.9 288.51,-232.74 c -8.8,-3.51 -17.59,-7.14 -26.36,-10.88 c -25.45,-11.68 -48.75,-26.7 -69.9,-45.06 c -0.51,-0.42 -1.09,-0.59 -1.74,-0.49 c -90.31,72.46 -180.46,145.13 -270.45,218.01 Z M 426.46,1293.97 c 4.8,2.96 9.64,5.85 14.52,8.67 c 0.69,0.33 1.36,0.29 2.01,-0.13 c 4.94,-8.37 9.81,-16.79 14.61,-25.24 c 0.37,-0.77 0.97,-1.21 1.81,-1.31 c 4.06,2.26 8.18,4.4 12.37,6.42 c 21.64,9.93 37.76,1.77 46.35,-19.52 c 10.81,-26.98 -22.38,-44.1 -42.91,-51.25 c -0.69,-0.28 -1.34,-0.21 -1.94,0.2 c -15.43,26.88 -30.91,53.73 -46.44,80.54 c -0.25,0.51 -0.38,1.05 -0.38,1.62 Z M 985.26,1253.31 c 17.42,14.1 36.28,26.53 54.83,39.07 c 5.84,10.54 11.54,21.15 17.1,31.85 c 0.17,0.09 0.34,0.17 0.51,0.25 c 5.39,-2.61 10.68,-5.41 15.87,-8.39 c 0.34,-0.7 0.32,-1.4 -0.06,-2.09 c -3.46,-6.72 -14.28,-25.99 -16.42,-31.51 c 0.43,-21.94 -0.02,-43.85 -1.37,-65.75 c -0.3,-0.3 -0.63,-0.34 -1.01,-0.12 c -1.9,1.01 -3.84,1.92 -5.82,2.73 c -3.77,2.28 -7.61,4.43 -11.5,6.46 c -0.26,0.88 -0.32,1.77 -0.19,2.68 c 1.57,12.7 1.98,25.19 2.2,38.05 c 0.12,0.86 -0.1,2.92 -1.51,2 c -11.27,-7.83 -22.14,-16.16 -32.62,-25.01 c -0.51,-0.18 -1.02,-0.16 -1.51,0.06 c -6.12,3.34 -12.29,6.58 -18.5,9.72 Z M 468.49,1259.15 c 0.23,-0.76 0.52,-1.5 0.86,-2.21 c 4.1,-7.19 8.3,-14.31 12.59,-21.36 c 0.6,-0.18 1.18,-0.12 1.73,0.2 c 8.74,4.32 20.99,11.31 14.62,22.92 c -6.53,14.19 -20.51,7.05 -29.8,0.45 Z M 493.39,1331.65 c 3.13,1.36 6.28,2.67 9.46,3.93 c 2.81,1.06 5.64,2.02 8.49,2.89 c 1.91,-0.84 10.5,-12.69 12.5,-15.17 c 0.4,-0.52 0.93,-0.74 1.59,-0.68 c 2.17,1.61 4.38,3.19 6.63,4.73 c 4.24,2.53 8.77,4.33 13.6,5.39 c 3.16,0.67 6.35,1.2 9.56,1.57 c 1.68,1.59 -2.62,19.18 -0.8,21.77 c 5.36,2.29 10.74,4.52 16.16,6.69 c 1.39,0.61 2.18,0.19 2.36,-1.28 c 2.65,-32.74 4.94,-65.09 4.69,-97.99 c 0.03,-0.82 -0.1,-1.6 -0.41,-2.36 c -5.03,-2.3 -10.12,-4.45 -15.3,-6.43 c -0.85,-0.3 -1.59,-0.11 -2.22,0.55 c -23.08,23.33 -44.57,49.13 -65.32,74.55 c -0.42,0.57 -0.75,1.18 -0.99,1.84 Z M 941.94,1315 c 0.03,17.52 0.35,35.03 0.96,52.54 c -0.2,2.76 2.9,1.02 4.33,0.99 c 4.79,-1.66 9.52,-3.51 14.19,-5.52 c 0.56,-4.12 -0.61,-14.73 -0.5,-19.53 c -0.09,-0.88 0.19,-1.6 0.84,-2.16 c 8.37,-0.8 14.55,-2.43 22.13,-6.09 c 2.61,-1.31 5.19,-2.68 7.72,-4.13 c 0.77,0.11 1.37,0.52 1.77,1.21 c 3.69,5.2 7.44,10.34 11.27,15.41 c 1.52,0.92 4.75,-1.33 6.56,-1.22 c 3.82,-1.61 7.72,-3.06 11.68,-4.35 c 0.69,-0.56 0.75,-1.22 0.19,-1.97 c -19.85,-27.1 -39.63,-53.62 -62.05,-78.61 c -0.67,-0.22 -1.33,-0.2 -1.98,0.08 c -4.71,1.68 -9.44,3.28 -14.2,4.8 c -0.65,0.34 -1.11,0.85 -1.39,1.53 c -1.02,15.65 -1.53,31.33 -1.52,47.02 Z M 588.96,1367.01 c 0,0.42 0.16,0.77 0.48,1.05 c 5.37,2.2 11.79,2.91 17.5,4.13 c 0.43,-0.86 0.76,-1.76 0.98,-2.7 c 5.5,-24.06 11.03,-48.1 16.59,-72.15 c 0.27,-1 0.92,-1.53 1.94,-1.59 c 7.1,0.87 16.89,3.05 20.32,10.15 c 3.68,14.34 -12.48,21.39 -22.88,26.42 c -0.1,0.14 -0.2,0.28 -0.3,0.42 c 0.61,3.26 2.56,7.67 3.32,11.12 c 1.67,6.45 6.19,31.13 8.89,35 c 3.71,1.04 7.47,1.95 11.28,2.74 c 0.56,0.31 1.13,0.57 1.72,0.81 c 2.2,0.13 4.36,0.51 6.48,1.13 c 1.29,-0.45 0.52,-2.05 0.48,-3.02 c -2.38,-13.36 -5.94,-26.41 -10.65,-39.13 c -0.05,-0.51 0.14,-0.9 0.58,-1.17 c 11.02,-2.8 17.35,-9.76 20.11,-20.77 c 6,-21.97 -6.5,-34.4 -26.39,-40.07 c -4.26,-1.44 -26.66,-5.69 -29.33,-3.77 c -7.53,30.28 -14.19,60.91 -21.12,91.4 Z M 536.16,1307 c 7.57,-9.23 15.22,-18.4 22.93,-27.51 c 0.38,-0.4 0.75,-0.39 1.11,0.01 c 0.04,3.99 -0.08,7.99 -0.36,12 c -0.39,8 -1.01,15.99 -1.85,23.95 c -0.33,0.53 -0.81,0.77 -1.44,0.74 c -5.93,0.21 -17.55,-3.82 -20.39,-9.19 Z M 842.38,1292.13 c 3.63,20.73 7.3,41.45 11,62.16 c 6.48,28.81 30.26,36.05 55.35,22.93 c 16.74,-13.67 14.3,-28.47 10.77,-47.69 c -2.58,-16.63 -5.52,-33.22 -8.82,-49.76 c -0.34,-0.35 -0.75,-0.44 -1.21,-0.27 c -5.29,0.99 -10.59,1.89 -15.9,2.7 c -0.87,0.04 -1.37,0.48 -1.5,1.33 c 3.13,21.1 8.51,44.01 10.7,64.97 c 0.14,14.74 -17.89,21.69 -26.36,10.59 c -2.75,-4.03 -4.49,-8.45 -5.23,-13.28 c -3.34,-19.09 -6.76,-38.16 -10.26,-57.21 c -0.41,-0.3 -0.88,-0.41 -1.4,-0.34 c -5.31,1.04 -10.64,1.99 -15.98,2.86 c -0.66,0.05 -1.05,0.39 -1.16,1.01 Z M 958.9,1289 c -0.23,-2.96 0.55,-3.28 2.33,-0.93 c 6.73,8.61 13.36,17.31 19.87,26.09 c 0.7,0.83 0.67,1.62 -0.1,2.35 c -6.06,4.46 -12.85,6.79 -20.38,7 c -0.41,-0.02 -0.73,-0.19 -0.95,-0.53 c -0.54,-11.31 -0.8,-22.64 -0.77,-33.98 Z M 665.93,1385 c 0.91,1.28 15.15,1.68 17.6,2.15 c 0.61,0.06 1.18,-0.07 1.72,-0.38 c 2.51,-6.14 5.02,-12.29 7.52,-18.45 c 0.56,-1.12 1.47,-1.51 2.72,-1.18 c 10,0.9 20,1.84 29.99,2.83 c 1.6,0.7 1,2.53 1.29,3.86 c 1.32,5.65 2.67,11.3 4.03,16.95 c 1.6,1.23 14.69,1.52 17.72,2.07 c 0.82,0.17 1.51,-0.03 2.08,-0.59 c -1.51,-7.95 -3.19,-15.87 -5.02,-23.77 c -2.8,-14.17 -7.04,-28.45 -10.11,-42.66 c -3.21,-10.65 -6.43,-21.29 -9.63,-31.93 c -5.43,-0.68 -10.88,-1.29 -16.35,-1.82 c -0.86,-0.07 -1.63,0.16 -2.3,0.7 c -15.39,29.95 -29.16,60.82 -41.26,92.22 Z M 763.09,1342 c -0.41,24.01 9.9,48.47 36.46,51.66 c 6.54,0.74 32.72,-0.83 36.64,-6.18 c -0.1,-14.99 -0.49,-29.99 -1.19,-44.99 c 0.11,-0.89 -0.12,-1.65 -0.68,-2.3 c -5.63,-0.05 -11.26,0.13 -16.89,0.53 c -0.63,0.01 -1.1,0.28 -1.43,0.82 c -0.03,10.33 0.28,20.66 0.93,30.98 c 0.02,1.62 -0.8,2.39 -2.45,2.3 c -25.86,3.82 -33.19,-16.25 -31.34,-38.32 c 1.54,-24.27 23.58,-29.83 42.85,-19.93 c 0.41,0.15 0.83,0.18 1.26,0.09 c 1.58,-5.03 3.08,-10.1 4.49,-15.23 c 0.4,-1.13 0.13,-2.03 -0.81,-2.7 c -35.26,-16.95 -68.66,4.21 -67.84,43.27 Z M 699.77,1349.06 c 4.59,-11.05 9.19,-22.08 13.82,-33.11 c 0.16,-0.34 0.42,-0.57 0.78,-0.67 c 2.07,7.78 4.05,15.62 5.95,23.51 c 0.98,4.16 1.8,8.33 2.46,12.53 c -0.62,0.6 -1.38,0.81 -2.26,0.63 c -6.35,-0.65 -13.9,-0.9 -20.02,-1.94 c -0.41,-0.19 -0.65,-0.51 -0.73,-0.95 Z"/></g>
<g><path fill="#cc001c" stroke="#cc001c" stroke-width="0.5" d="M 263.95,338.01 c 0.95,-1.56 2.05,-3 3.31,-4.33 c 21.75,-25.21 45.31,-48.6 70.67,-70.18 c 0.75,-0.53 1.55,-0.64 2.41,-0.34 c 98.91,72.16 197.76,144.39 296.55,216.72 c 0.48,0.26 0.64,0.64 0.49,1.13 c -34.34,14.66 -64.83,35.05 -91.49,61.19 c -0.64,0.6 -1.38,0.81 -2.23,0.63 c -91.08,-66.52 -182.2,-133.05 -273.38,-199.6 c -2.19,-1.65 -4.3,-3.39 -6.33,-5.22 Z M 863.12,481.01 c 0.11,-0.62 0.41,-1.12 0.9,-1.51 c 77.31,-56.41 154.49,-113.19 231.68,-169.33 c 5.79,-4.18 11.49,-8.47 17.1,-12.89 c 15.93,-11.38 31.84,-22.82 47.73,-34.31 c 0.65,-0.13 1.24,0 1.78,0.39 c 20.12,17.11 39.13,35.38 57.03,54.8 c 5.89,6.31 11.56,12.81 16.99,19.51 c 0.19,0.39 0.13,0.75 -0.17,1.06 c -93.18,68.15 -186.42,136.21 -279.72,204.16 c -0.56,0.12 -1.06,0 -1.51,-0.35 c -27.85,-26.89 -56.72,-45.54 -91.81,-61.53 Z M 173.28,1021.1 c 0.02,-0.36 0.18,-0.64 0.5,-0.83 c 93.85,-75.33 187.65,-150.86 281.39,-226.61 c 1.64,-1.29 3.28,-2.58 4.92,-3.86 c 0.53,-0.38 1.03,-0.38 1.51,-0.02 c 4.71,36.79 17.09,72.44 35.29,104.67 c 0.27,0.48 0.33,0.98 0.19,1.51 c -89.91,72.51 -179.84,145 -269.79,217.47 c -0.64,0.21 -1.16,0.04 -1.56,-0.49 c -19.78,-28.6 -37.11,-58.61 -52,-90.03 c -0.28,-0.58 -0.43,-1.18 -0.45,-1.81 Z M 1003.21,894.99 c 18.64,-33.26 30.28,-66.97 35.7,-104.88 c 0.33,-1.9 2.7,0.8 3.41,1.16 c 94.75,76.5 189.53,152.97 284.32,229.42 c 0.36,0.87 0.32,1.73 -0.12,2.58 c -14.88,31.33 -32.21,61.25 -51.99,89.74 c -0.67,0.58 -1.35,0.58 -2.05,0 c -89.54,-72.27 -179.01,-144.27 -268.48,-216.51 c -0.45,-0.4 -0.72,-0.91 -0.79,-1.51 Z"/></g>
<g><path fill="#ffcc00" stroke="#ffcc00" stroke-width="0.5" d="M 527.17,686.18 c 55.77,-0.14 111.55,-0.05 167.33,0.27 c 0.99,0.07 1.94,-0.09 2.84,-0.49 c 1.5,-3.73 2.84,-7.53 4.03,-11.4 c 3.51,-11.53 8.08,-25.31 11.89,-37.02 c 7.54,-24.08 15.41,-47.86 23.19,-71.96 c -0.04,-2.32 1.19,-3.17 1.66,-5.15 c 3.77,-12.01 7.64,-24.04 11.6,-36.09 c 2.09,0.26 1.5,1.68 1.95,3.22 c 16.96,52.72 34.01,105.45 51.14,158.18 c 0.81,0.54 1.7,0.78 2.68,0.71 c 54.67,-0.26 109.34,-0.4 164.02,-0.43 c 1.46,-0.08 2.88,0.06 4.26,0.41 c -44.86,32.7 -89.81,65.29 -134.84,97.78 c -1.84,1.3 -3.77,2.24 -2.73,4.89 c 17.35,53.28 34.86,106.5 52.51,159.66 c 0.16,0.36 0.09,0.64 -0.23,0.85 c -45.98,-33.51 -92,-66.97 -138.06,-100.4 c -1.32,-0.14 -3.67,2.26 -4.83,2.9 c -44.29,32.3 -88.5,64.7 -132.64,97.18 c -0.46,0.32 -0.92,0.35 -1.37,0.11 c 17.58,-53.29 35.08,-106.61 52.5,-159.96 c 0.44,-0.98 0.51,-1.97 0.22,-2.99 c -45.21,-32.88 -90.46,-65.71 -135.77,-98.48 c -0.67,-0.43 -1.12,-1.02 -1.35,-1.79 Z"/></g>
<g><path fill="#1c5c8b" fill-opacity="0.031" stroke="#1c5c8b" stroke-width="0.5" stroke-opacity="0.031" d="M 413.35,77.69 c -0.95,1.45 0.97,1.61 1.86,1.79 c -40.82,20.45 -79.47,44.41 -115.95,71.87 c -2.05,-3.87 0.01,-1.85 1.5,-4.15 c 2.07,0.28 2.41,-2.54 4.04,-1.39 c -1.18,-2.02 0.23,-1.54 1.39,-1.92 c 2.45,-1.63 7,-5.93 9.51,-7.69 c 3.57,-0.63 6.11,-6.38 10.12,-5.37 c -1.33,-1.88 0.19,-1.75 1.4,-1.92 c 1.61,-1.35 0.57,-1.76 2.97,-2.01 c 1.36,-2.42 3.41,-1.22 4.5,-3.72 c 1.89,0.03 1.92,-0.62 2.97,-1.95 c 3.13,-0.13 2.39,-3.25 6.12,-2.44 c -1.35,-2.06 1.73,-2.34 3.03,-1.98 c -0.34,-0.53 -0.38,-1.08 -0.13,-1.62 c 2.23,-0.09 3.9,-1.09 5.01,-3.01 c 1.28,-0.04 1.82,-0.9 3.13,-0.35 c -0.39,-0.54 -0.45,-1.08 -0.18,-1.65 c 2.72,-0.28 3.48,-1 5.12,-3.02 c 1.93,-0.01 1.82,-0.65 3.01,-1.93 c 2.81,-1.74 4.77,-0.8 6.92,-4.01 c 1.52,-0.26 2.91,-0.82 4.16,-1.69 c 0.31,0.09 0.62,0.18 0.94,0.27 c -0.37,-0.55 -0.43,-1.1 -0.16,-1.67 c 3.05,-0.49 5.23,-1.41 7.13,-3.92 c 1.98,-1.21 3.73,-0.77 4.93,-3.14 c 1.6,-0.23 2.51,-1.08 4.1,-0.27 c -0.34,-0.54 -0.38,-1.08 -0.13,-1.63 c 1.12,-0.47 2.26,-0.93 3.4,-1.38 c 0.18,-0.54 0.44,-1.02 0.78,-1.46 c 2.65,-1.12 17.45,-8.39 18.51,-8.64 Z M 293.53,1344.48 c 39.87,30.68 82.38,57.12 127.53,79.3 c -1.61,0.14 -3.09,0.58 -4.43,1.33 c -4.17,-2.3 -8.43,-4.43 -12.78,-6.39 c -1.86,-4.43 -12.79,-4.66 -15.04,-9.16 c -0.57,-0.52 -1.26,-0.78 -2.05,-0.77 c -0.62,-0.78 -1.3,-1.51 -2.04,-2.17 c -1.38,0.03 -2.72,-0.18 -4.01,-0.63 c -0.52,-1.47 -1.54,-2.16 -3.05,-2.09 c -0.29,-0.56 -0.26,-1.11 0.11,-1.67 c -0.31,0.1 -0.62,0.19 -0.93,0.29 c -1.22,-0.91 -2.59,-1.49 -4.12,-1.74 c -0.59,-0.77 -1.26,-1.48 -1.99,-2.13 c -1.73,-0.51 -3.42,-1.09 -5.07,-1.74 c -0.29,-0.55 -0.26,-1.11 0.09,-1.67 c -0.61,0.29 -1.22,0.58 -1.83,0.86 c 1.43,-3.3 -5.33,-0.78 -3.13,-3.9 c -0.63,0.31 -1.27,0.62 -1.9,0.93 c 0.25,-0.95 -0.15,-1.4 -1.18,-1.35 c -1.65,-2.04 -2.36,-2.6 -5.07,-2.92 c -0.22,-0.57 -0.17,-1.13 0.16,-1.67 c -1.63,0.16 -3.14,0.03 -4.06,-1.5 c -2.44,-1.02 -3.9,-1.6 -5.5,-3.6 c -1.66,0.21 -2.14,-0.42 -1.43,-1.91 c -3.89,0.89 -2.91,-2.15 -6.03,-2.42 c -0.65,-1.26 -1.69,-1.91 -3.1,-1.95 c -1.04,-1.4 -1.06,-1.98 -2.97,-1.95 c -0.45,-0.64 -0.93,-1.24 -1.46,-1.81 c -2.92,-0.73 -5.11,-2.78 -7.05,-4.98 c -2.48,-0.12 -1.38,-0.54 -3.03,-2.01 c -2.94,-0.57 -8.28,-5.85 -10.97,-8 c -1.2,-0.31 -2.46,0.19 -1.4,-1.86 c -0.29,0.07 -0.59,0.15 -0.88,0.23 c -1.9,-1.19 -4.76,-2.04 -5.85,-4.18 c -2.81,-1.54 -5.91,-2.77 -5.54,-6.77 Z"/></g>
<g><path fill="#2f6381" fill-opacity="0.047" stroke="#2f6381" stroke-width="0.5" stroke-opacity="0.047" d="M 475.2,52.49 c -9.25,3.82 -18.47,7.72 -27.66,11.7 c -0.02,-0.7 -0.22,-1.34 -0.6,-1.92 c 0.57,-0.19 1.01,-0.03 1.33,0.46 c 0.6,-0.5 2.98,-0.41 2.69,-1.61 c 0.1,-0.34 0.2,-0.69 0.31,-1.03 c 0.83,0.97 2.95,0.8 3.51,-0.28 c -1.2,-1.31 -0.91,-1.96 0.86,-1.94 c 1.14,0.73 2.23,0.68 3.25,-0.14 c 0.92,0.02 1.81,-0.14 2.66,-0.48 c 0.64,-0.9 -0.63,-0.67 -0.58,-1.81 c 0.67,-0.3 1.36,-0.54 2.09,-0.72 c 0.25,-0.6 0.69,-0.86 1.32,-0.78 c 0.59,1.13 1.38,1.37 2.38,0.73 c -1.17,-1.19 -0.94,-1.72 0.7,-1.59 c 1.26,-0.33 0.44,-1.32 1.93,-1.13 c 1.53,2.8 3.36,-0.99 5.81,0.54 Z M 100.14,377.33 c -10.37,18.19 -20,36.77 -28.89,55.73 c -1.08,-1.83 0.89,-2.33 -1.39,-3.62 c -0.2,-1.57 0.68,-0.76 1.13,-2 c 3.36,-6.66 6.74,-13.33 10.12,-20 c 0.69,-2.13 1.68,-4.12 2.99,-5.97 c -0.2,-1.55 0.6,-4.18 2.68,-2.71 c -0.29,-0.64 -0.59,-1.28 -0.88,-1.93 c 0.55,0.28 1.09,0.27 1.59,-0.04 c 0.08,-2.14 1.98,-1.54 0.47,-3.99 c 0.3,0.05 0.6,0.11 0.9,0.17 c 0.87,-1.72 1.62,-3.49 2.26,-5.31 c 0.55,-0.28 1.1,-0.25 1.65,0.1 c -0.83,-1.56 -0.5,-2.8 0.99,-3.73 c 0.96,-1.73 1.74,-3.54 2.35,-5.42 c 0.56,-0.28 1.11,-0.23 1.65,0.14 c -1.21,-2.46 0.9,-2.28 2.38,-1.42 Z M 1429.68,1065.92 c 0.43,0.79 0.54,1.63 0.32,2.53 c 0.65,0.5 1.04,1.14 1.18,1.9 c -0.43,1.01 -1.07,1.85 -1.91,2.54 c -0.6,2.59 -0.84,2.95 -2.09,0.16 c -0.21,-0.06 -0.41,-0.12 -0.62,-0.19 c 1,-2.33 2.04,-4.65 3.12,-6.94 Z M 79.19,1083.8 c 3.95,7.7 7.95,15.38 11.99,23.04 c -0.82,0.29 -1.42,0.03 -1.81,-0.78 c -2.34,-0.07 -3.55,-0.91 -3.25,-3.49 c -3.05,-6.08 -6.17,-12.1 -9.35,-18.05 c 0.77,-0.35 1.58,-0.59 2.42,-0.72 Z M 1419.66,1086.86 c 0.88,0.11 1.73,0.33 2.55,0.66 c -1.77,3.3 -3.56,6.64 -5.35,10.01 c -0.1,1.56 -0.56,3.01 -1.37,4.37 c -1.01,0.77 -2,1.57 -2.97,2.4 c -0.47,2.26 -1.36,4.34 -2.67,6.22 c 0.22,2.79 -1.75,3.14 -3.34,4.79 c -0.29,1.32 -0.64,2.6 -1.05,3.83 c -0.8,-0.37 -1.57,-0.81 -2.33,-1.31 c 5.65,-10.25 11.16,-20.57 16.53,-30.97 Z M 110.16,1139.92 c 2.54,3.91 4.98,7.87 7.32,11.9 c -0.53,0.55 -1.14,0.96 -1.83,1.23 c -0.23,-0.6 -0.19,-1.2 0.1,-1.79 c -0.56,0.34 -1.09,0.35 -1.62,0.04 c -0.43,-1.09 -0.89,-2.19 -1.36,-3.28 c -0.31,0.04 -0.62,0.09 -0.94,0.14 c 0.32,-0.65 0.65,-1.3 0.97,-1.95 c -2.96,1.76 -0.53,-1.69 -2.95,-1.1 c 0.3,-0.63 0.61,-1.25 0.92,-1.87 c -0.78,0.48 -2.21,0.81 -2.05,-0.72 c 0.72,-0.74 1.2,-1.6 1.44,-2.6 Z M 1389.74,1140.82 c 0.87,0.17 1.71,0.42 2.53,0.77 c 0.24,1.55 -1.15,1.1 -2.02,0.65 c 0.64,1.4 -0.48,1.71 -0.34,3.1 c -0.58,0.26 -1.16,0.22 -1.73,-0.14 c 0.34,0.56 0.42,1.16 0.24,1.77 c -0.66,-0.27 -1.25,-0.67 -1.77,-1.19 c 0.97,-1.68 2,-3.34 3.09,-4.96 Z M 1384.82,1148.72 c 0.79,0.28 1.59,0.55 2.4,0.82 c 0.06,1.33 -0.79,0.78 -1.49,1.68 c -0.39,1.55 -0.35,3.39 -2.57,1.97 c 0.32,0.57 0.39,1.16 0.23,1.77 c -0.62,-0.34 -1.21,-0.73 -1.78,-1.17 c 1.06,-1.7 2.13,-3.39 3.21,-5.07 Z M 1062.96,1431.61 c 0.54,0.77 1.21,1.4 2.02,1.91 c -2.03,0.88 -4.06,1.79 -6.08,2.75 c -0.9,0.91 -1.81,2.3 -3.26,1.8 c -0.58,-1.17 -1.35,-1.38 -2.3,-0.65 c 1,1.12 0.73,1.61 -0.79,1.48 c -0.87,1 -1.93,1.76 -3.16,2.29 c -2.71,-0.78 -0.63,-2.47 -3.87,0.06 c -0.96,0.12 -1.82,-0.12 -2.58,-0.73 c 6.66,-3 13.33,-5.97 20.02,-8.91 Z M 460.01,1441.59 c 2.71,0.99 5.4,2.05 8.05,3.18 c -2.41,1.18 -3.31,-1.66 -4.64,1.3 c -0.26,0.05 -0.52,0.09 -0.78,0.13 c -1.25,-0.52 -2.33,-1.28 -3.23,-2.27 c -0.54,0.11 -1.02,0 -1.45,-0.33 c 0.35,-1 1.03,-1.67 2.05,-2.01 Z"/></g>
<g><path fill="#005c9a" fill-opacity="0.2" stroke="#005c9a" stroke-width="0.5" stroke-opacity="0.2" d="M 889.92,13.45 c 0.83,-0.44 1.71,-0.62 2.64,-0.54 c 2.84,0.76 5.74,1.2 8.7,1.34 c 1.77,0.52 3.53,1.08 5.28,1.68 c 1.02,0.12 2.06,0.18 3.09,0.18 c 2.06,0.7 4.15,1.29 6.27,1.76 c 2.5,0.38 4.99,0.8 7.48,1.25 c 0.42,0.25 0.84,0.49 1.25,0.75 c 1.11,0.32 3.95,-0.53 2.82,1.71 c -1.19,-0.59 -2.45,-0.86 -3.79,-0.81 c -1.22,-0.98 -2.59,-1.32 -4.13,-1.02 c -3.76,-0.66 -7.45,-1.57 -11.07,-2.74 c -1.22,-0.09 -2.44,-0.22 -3.65,-0.38 c -2.1,-0.55 -4.2,-1.11 -6.29,-1.68 c -2.86,-0.52 -5.73,-1.02 -8.6,-1.5 Z M 935.89,23.7 c 1.6,-0.97 3.16,-0.92 4.69,0.15 c 2.02,0.28 4.01,0.7 5.98,1.24 c 0.49,0.19 0.94,0.46 1.35,0.78 c 0.82,0.35 3.61,-0.45 2.84,1.33 c -1.35,-0.2 -2.7,-0.4 -4.06,-0.57 c -3.53,-1.18 -7.13,-2.16 -10.8,-2.93 Z M 1460.5,511.53 c 0.46,-0.31 0.9,-0.28 1.31,0.07 c 0.45,1.59 0.87,3.19 1.25,4.79 c 0.75,0.83 1.1,1.81 1.05,2.93 c 0.6,1.44 1.2,2.86 1.81,4.29 c 0.28,3.08 1.07,7.56 2.96,10.06 c 0.06,1.67 0.33,3.31 0.82,4.92 c 0.94,1.57 1.68,3.23 2.2,4.97 c 0.06,0.96 0.13,1.92 0.21,2.87 c 0.68,1.35 1.24,2.75 1.68,4.2 c -0.16,1.45 0.14,2.78 0.9,4 c 0.5,1.63 -0.11,2.66 1.15,4.05 c 0.11,0.9 0.19,1.81 0.24,2.72 c 0.71,1.63 1.32,3.3 1.84,5.02 c -0.19,1.52 0.12,2.91 0.95,4.17 c 0.12,0.93 0.2,1.85 0.25,2.79 c 1.17,1.51 1.23,3.09 0.18,4.73 c -0.48,-2.16 -0.91,-4.34 -1.29,-6.52 c -2.55,-8.94 -4.93,-17.95 -7.13,-27.03 c -3.26,-11.08 -6.73,-22.09 -10.38,-33.03 Z M 1488.47,876.88 c 1.23,1.12 0.32,4.16 0.58,5.72 c -0.14,0.75 -0.46,1.43 -0.95,2.03 c 0.04,1.72 -0.29,3.36 -1,4.91 c -0.14,1.31 -0.15,2.64 -0.04,3.96 c -0.34,1 -0.7,1.99 -1.1,2.97 c 0.46,1.56 0.16,2.94 -0.9,4.12 c -0.16,1.23 -0.28,2.46 -0.36,3.7 c -0.43,1.79 -0.95,3.55 -1.58,5.28 c -0.5,2.11 0.6,3.34 -1.13,5.04 c -0.59,3.94 -1.3,7.86 -2.15,11.77 c -0.26,0.39 -0.49,0.79 -0.69,1.21 c -0.51,2.24 -0.98,4.48 -1.41,6.74 c -1.3,1.33 -0.5,2.53 -0.88,4.13 c -0.57,0.55 -0.99,0.44 -1.24,-0.31 c 1.3,-5.95 2.77,-11.86 4.4,-17.73 c 0.63,-3.97 1.39,-7.92 2.29,-11.85 c 0.79,-1.57 1.14,-3.23 1.04,-5 c 1.1,-5.74 2.32,-11.47 3.65,-17.17 c 0.49,-3.17 0.98,-6.35 1.47,-9.52 Z M 25.72,940.92 c -0.05,1.36 0.3,2.61 1.05,3.75 c 1.2,4.71 2.49,9.39 3.88,14.05 c -0.56,0.17 -1.06,0.07 -1.5,-0.31 c -0.64,-1.88 -1.06,-3.82 -1.26,-5.8 c -1.45,-1.46 -0.62,-2.16 -1.04,-3.95 c -0.59,-1.43 -1.19,-2.87 -1.79,-4.3 c -0.28,-1.24 -0.06,-2.39 0.66,-3.44 Z M 1473.28,945.92 c 1.74,2.87 -0.51,3.73 -0.34,6.5 c -1.32,1.53 -0.8,1.99 -1.01,3.9 c -1.46,2.11 -2.12,4.45 -1.98,7.03 c -0.61,1.74 -1.35,3.43 -2.21,5.09 c -0.53,1.61 -0.81,3.26 -0.84,4.96 c -1.24,1.37 -0.41,2.82 -1.87,4.19 c -0.42,1.6 -0.81,3.2 -1.16,4.8 c -1.29,1.78 -1.96,3.77 -1.99,5.99 c -0.38,0.39 -0.82,0.45 -1.3,0.17 c 1.56,-5.45 3.34,-10.83 5.33,-16.13 c 2.48,-8.81 4.93,-17.65 7.37,-26.5 Z M 30.65,958.72 c 0.53,1.9 0.99,3.81 1.41,5.74 c 0.9,2.44 1.77,4.89 2.62,7.35 c 0.07,0.89 0.2,1.76 0.4,2.62 c 3.15,9.07 6.23,18.16 9.22,27.27 c -1.17,0.56 -1.6,-1.71 -2.34,-2.26 c 0.14,-1.14 -0.18,-2.13 -0.96,-2.96 c 0.19,-1.16 -0.09,-2.18 -0.83,-3.08 c -0.48,-2.87 -1.3,-6.73 -3.12,-9.03 c -0.66,-2.57 -1.37,-5.13 -2.14,-7.67 c -0.27,-0.42 -0.54,-0.84 -0.8,-1.26 c -0.57,-1.91 -0.97,-3.86 -1.18,-5.86 c -0.95,-2.38 -1.87,-4.77 -2.75,-7.18 c -0.25,-1.28 -0.09,-2.5 0.47,-3.68 Z M 528.22,1466.82 c 0.77,-0.07 1.53,-0.03 2.29,0.13 c 5.41,1.56 10.77,3.24 16.06,5.05 c 2.21,0.43 4.41,0.87 6.62,1.34 c 1.11,0.35 2.14,0.83 3.07,1.46 c -1.7,0.36 -3.29,0.1 -4.76,-0.76 c -2.02,-0.17 -3.98,-0.58 -5.9,-1.24 c -0.41,-0.25 -0.82,-0.5 -1.25,-0.72 c -1.98,-0.26 -3.92,-0.64 -5.83,-1.16 c -2.13,-1.78 -4.24,-2.11 -7.01,-2.07 c -0.85,-0.64 -1.82,-0.96 -2.89,-0.95 c -0.47,-0.23 -0.61,-0.59 -0.4,-1.08 Z M 928.46,1478.47 c 1.26,2.2 -1.9,1.27 -2.92,1.61 c -3.09,0.82 -6.17,1.72 -9.23,2.69 c -1.86,0.48 -3.32,-0.4 -4.92,0.96 c -1.28,0.13 -2.56,0.27 -3.85,0.43 c -1.21,0.73 -2.52,1.05 -3.94,0.97 c -2.23,2.08 -4.13,-0.46 -6.22,1.76 c -1.25,0.08 -2.5,0.15 -3.75,0.22 c -1.62,1.75 -3.99,0.42 -6.09,0.99 c -1.77,1.31 -3.79,0.75 -5.84,0.74 c 0.16,-0.37 0.45,-0.59 0.86,-0.67 c 1.17,0.12 2.24,-0.13 3.23,-0.75 c 7.89,-1.46 15.77,-2.92 23.64,-4.39 c 6.35,-1.42 12.7,-2.94 19.03,-4.56 Z M 616.95,1488.02 c 5.1,0.66 10.16,1.49 15.16,2.49 c -1.51,1.37 -3.89,0.1 -5.71,0.36 c -2.24,-0.82 -4.56,-1.12 -6.97,-0.91 c -1.11,-0.27 -1.93,-0.92 -2.48,-1.94 Z"/></g>
<g><path fill="#205f89" fill-opacity="0.031" stroke="#205f89" stroke-width="0.5" stroke-opacity="0.031" d="M 1221.71,167.45 c -42.38,-34.3 -87.94,-63.68 -136.67,-88.14 c 1.37,-0.24 0.78,-1.64 1.47,-2.47 c 1.47,0.01 5.19,2.48 6.82,3.22 c 0.51,1.41 1.51,2.14 3,2.19 c 2.37,1.3 4.75,2.57 7.15,3.78 c 1.39,-0.28 3.01,1.2 4.34,1.59 c 0.62,0.79 1.28,1.54 1.98,2.26 c 1.23,0.2 2.37,0.61 3.42,1.24 c 0.51,0.6 1.01,1.21 1.5,1.83 c 0.91,0.38 1.76,0.89 2.53,1.52 c 1.03,0.21 2.06,0.45 3.08,0.7 c 0.9,1.42 3.42,0.49 1.87,2.64 c 0.83,-0.42 1.53,-0.24 2.1,0.53 c 0.99,0.34 1.99,0.62 3.01,0.83 c 1.64,2.13 2.3,2.54 5,2.98 c 0.58,0.8 1.23,1.53 1.97,2.19 c 1.51,0.35 2.93,0.91 4.23,1.7 c 1.42,-0.28 2.23,0.31 2.44,1.74 c 2.07,1.28 4.21,2.42 6.44,3.43 c 0.25,0.55 0.19,1.09 -0.19,1.6 c 1.53,-0.37 3.14,0.11 4.03,1.46 c 1.28,0.28 2.38,0.88 3.31,1.79 c 2.8,-0.61 1.22,2.19 3.72,2.14 c 0.42,0.64 0.92,1.2 1.51,1.68 c 1.35,0.17 2.57,-0.01 1.42,1.93 c 1.07,-0.1 2.13,-0.01 3.2,0.29 c 0.25,0.57 0.2,1.13 -0.16,1.68 c 1.05,-0.1 2.09,0.03 3.12,0.38 c 1.1,1.51 0.93,1.92 2.9,2.01 c 0.63,1.23 1.64,1.89 3.02,1.98 c 0.27,0.41 0.59,0.78 0.95,1.12 c 1.06,0.5 2.08,1.09 3.07,1.76 c 0.53,1.37 1.51,2.08 2.96,2.12 c 0.47,0.61 0.98,1.18 1.52,1.72 c 1.12,0.27 2.61,-0.02 1.47,1.89 c 1.23,-0.77 2.18,-0.52 2.84,0.74 c 1.6,0.73 2.28,0.25 2.86,2.28 c 1.04,0.55 2.39,-0.02 1.26,2.04 c 0.28,-0.1 0.56,-0.2 0.85,-0.29 c 1.55,0.65 1.14,1.67 3.24,1.65 c 0.59,0.87 1.37,1.47 2.34,1.8 c 0.21,0.84 0.76,1.23 1.64,1.15 c 0.75,1.43 2.48,1.06 2.7,2.67 c 1.25,0.65 2.5,1.34 3.74,2.07 c 0.6,0.73 1.12,1.51 1.59,2.33 c 2.29,1.75 4.7,3.34 7.22,4.78 c 1.55,0.92 1.42,3.45 3.6,1.91 c -0.34,0.48 -0.33,0.94 0.04,1.36 c 1.46,0.54 2.5,1.54 3.13,2.99 c 0.64,0.15 1.25,0.03 1.81,-0.35 c -1.13,2.41 2.5,0.45 -0.39,3.56 Z M 1215.64,1337.65 c 0.3,0.61 0.73,1.1 1.3,1.47 c 0.03,0.38 -0.06,0.73 -0.28,1.05 c -2.38,1.58 -4.81,3.12 -7.29,4.61 c -1.16,2.43 -2.69,2.45 -4.13,4.09 c -1.6,0 -4.98,4.61 -7,4.93 c -0.87,0.64 -0.99,1.78 -2.41,1.16 c -0.65,-0.17 -1.05,-0.6 -1.18,-1.28 c 7.06,-5.27 14.05,-10.61 20.99,-16.03 Z"/></g>
<g><path fill="#2b6183" fill-opacity="0.039" stroke="#2b6183" stroke-width="0.5" stroke-opacity="0.039" d="M 170.99,274.59 c -22.18,27.12 -42.41,55.63 -60.69,85.52 c -0.39,-0.85 -0.79,-1.69 -1.19,-2.5 c 1.52,-0.78 0.65,-1.56 1.1,-2.77 c 0.93,-0.46 1.69,-1.09 2.28,-1.92 c 0.88,-1.22 0.01,-3.5 2.32,-2.11 c -0.36,-1.34 0.32,-2.63 0.48,-3.96 c 1.04,-1.1 2.89,-0.95 1.53,-2.97 c 2.44,0.64 -0.09,-2.83 3.01,-1.06 c -0.09,-0.31 -0.18,-0.63 -0.28,-0.94 c 0.64,-1.29 0.03,-3.55 2.28,-2.06 c -0.08,-0.33 -0.16,-0.65 -0.24,-0.97 c 0.54,-1.28 0.05,-3.5 2.23,-2.04 c -0.08,-0.31 -0.17,-0.62 -0.25,-0.94 c 0.49,-0.81 0.92,-1.63 1.3,-2.44 c 0.31,0.13 0.63,0.25 0.95,0.38 c -0.84,-1.71 0.66,-1.36 0.58,-2.98 c 0.43,-0.36 0.9,-0.37 1.41,-0.03 c -0.08,-0.31 -0.17,-0.63 -0.25,-0.95 c 0.49,-0.81 0.93,-1.61 1.33,-2.4 c 0.32,0.13 0.63,0.25 0.94,0.38 c -0.92,-1.6 -0.48,-2.65 1.31,-3.14 c 0.19,-0.56 0.3,-1.14 0.33,-1.74 c 1.08,-1.17 1.29,-3.39 3.3,-2.19 c -0.05,-1.04 0.06,-2.09 0.32,-3.13 c 0.58,-0.26 1.15,-0.2 1.71,0.16 c -0.1,-0.3 -0.2,-0.61 -0.3,-0.92 c 0.51,-0.81 0.97,-1.62 1.37,-2.44 c 0.31,0.13 0.63,0.26 0.95,0.39 c -0.98,-1.38 -0.66,-2.29 0.95,-2.73 c 0.66,-0.98 -0.19,-2.39 2.03,-1.3 c -0.33,-0.6 -0.46,-1.24 -0.41,-1.92 c 1.17,-0.86 1.47,-3.56 3.39,-2.11 c -0.9,-1.61 -0.44,-2.66 1.37,-3.13 c 0.45,-1.33 -0.16,-2.05 1.62,-2.54 c 0.68,-1.25 1.35,-2.52 2.01,-3.8 c 0.97,-0.36 1.83,-0.86 2.6,-1.5 c 0.02,-0.68 -0.15,-1.31 -0.52,-1.89 c 0.5,0.34 0.96,0.32 1.39,-0.06 c 0.49,-1.13 1.07,-2.22 1.75,-3.25 c 0.61,-0.23 1.2,-0.17 1.77,0.17 c -0.86,-1.39 -0.52,-2.29 1.01,-2.7 c 0.53,-0.81 0.05,-2.66 2.02,-1.27 c -1.52,-2.59 1.32,-3.74 3.31,-4.3 c 0.21,-1.09 0.41,-2.18 0.6,-3.28 c 0.96,-0.92 2.08,-1.49 3.38,-1.72 c 0.2,-1.07 0.42,-2.15 0.65,-3.23 c 1.17,-1.3 2.25,-1.2 3.25,0.33 Z M 1358.82,312.97 c -8.98,-12.36 -18.27,-24.48 -27.87,-36.37 c 1.48,-2.15 3.84,-1.47 2.3,1.15 c 0.61,-0.32 1.22,-0.63 1.83,-0.95 c -0.38,0.59 -0.47,1.21 -0.29,1.88 c 1.54,0.54 2.53,1.59 2.96,3.15 c 0.44,0.38 0.9,0.39 1.4,0.04 c -0.4,0.61 -0.63,1.28 -0.68,2.01 c 1.32,0.63 2.57,1.42 3.77,2.37 c 0.34,0.74 0.56,1.52 0.65,2.35 c 2.22,1.11 2.58,1.64 2.96,4.05 c 1.62,0.97 3.67,1.87 2.36,4.13 c 0.58,-0.35 1.17,-0.42 1.79,-0.19 c 0.45,1.83 2.58,2.02 1.22,4.18 c 0.58,-0.35 1.18,-0.4 1.8,-0.16 c 0.57,1.8 2.45,1.96 1.18,4.18 c 0.55,-0.36 1.11,-0.41 1.68,-0.15 c -0.29,2.55 3.08,1.14 1.3,4.19 c 0.51,-0.35 0.99,-0.34 1.43,0.01 c -0.11,1.63 1.49,1.28 0.62,2.94 c 0.61,-0.42 1.24,-0.45 1.88,-0.11 c 0.27,0.62 0.1,1.06 -0.52,1.3 c -0.65,-0.55 -1.24,-0.55 -1.77,0 Z M 431.11,1428.66 c 7.61,3.52 15.27,6.94 22.97,10.27 c -2.39,0.86 -3.42,-1.73 -4.73,1.12 c -0.25,0.05 -0.51,0.11 -0.76,0.16 c -1.53,-1.4 -3.23,-2.52 -5.11,-3.38 c -2.71,0.51 -6.4,-1.91 -8.36,-3.61 c -2,-0.98 -4.02,-1.86 -6.07,-2.64 c 0.52,-0.58 1.15,-1.01 1.89,-1.31 c 0.06,-0.2 0.11,-0.4 0.17,-0.61 Z M 1042.94,1440.52 c 0.01,0.25 0.03,0.51 0.05,0.76 c 2.57,1.57 2.78,1.08 -0.07,1.96 c -1.12,1.57 -2.6,2.12 -4.45,1.63 c -0.91,0.9 -1.94,1.67 -3.08,2.3 c -1.48,0.06 -0.83,-0.71 -1.89,-1.42 c -0.9,0.14 -1.75,0.01 -2.55,-0.38 c 3.97,-1.67 7.97,-3.29 11.99,-4.85 Z"/></g>
<g><path fill="#2a6084" fill-opacity="0.063" stroke="#2a6084" stroke-width="0.5" stroke-opacity="0.063" d="M 528.96,33.22 c -0.06,0.31 -0.25,0.53 -0.56,0.65 c -15.14,4.73 -30.11,9.93 -44.93,15.58 c -0.63,-0.71 -1.33,-1.35 -2.08,-1.93 c 2.05,-1.67 2.12,-1.6 4.03,-0.1 c 4.67,-1.66 9.87,-3.05 14.14,-5.56 c 1.51,-0.38 3.04,-0.69 4.59,-0.94 c 4.42,-1.71 8.89,-3.26 13.41,-4.66 c 1.58,-0.98 3.24,-1.79 4.98,-2.45 c 2.17,0 4.31,-0.2 6.42,-0.59 Z M 483.47,49.45 c -2.75,1.03 -5.51,2.05 -8.27,3.04 c -0.36,-0.87 -0.95,-1.54 -1.77,-2.01 c 2.14,-1.63 2.13,-1.84 4,-0.03 c 2.79,-0.47 2.7,-3.06 6.04,-1 Z M 1043.27,57.93 c 0.53,0.61 1.21,0.86 2.05,0.76 c -0.59,0.28 -3.03,0.7 -2.05,-0.76 Z M 1045.32,58.69 c 0.69,0.31 1.36,0.66 2.01,1.03 c -0.85,0.46 -2.9,0.57 -2.01,-1.03 Z M 1047.33,59.72 c 0.48,0.39 0.97,0.42 1.49,0.08 c 0.6,1.43 -2.31,2.05 -1.49,-0.08 Z M 1052.34,61.99 c 0.59,0.45 1.28,0.67 2.06,0.66 c -0.54,0.29 -3.12,0.8 -2.06,-0.66 Z M 1054.4,62.65 c 0.64,0.35 1.29,0.68 1.96,0.98 c -0.85,0.47 -2.98,0.67 -1.96,-0.98 Z M 1056.36,63.63 c 0.4,0.42 0.85,0.49 1.36,0.21 c 0.22,0.97 -1.12,1.07 -1.71,1.4 c 0.11,-0.54 0.23,-1.07 0.35,-1.61 Z M 207.19,233.49 c -2,2.29 -4.06,4.54 -6.16,6.74 c -3.25,-0.85 -0.98,-1.27 0.52,-2.18 c 0.83,-0.83 1.68,-1.66 2.54,-2.46 c 0.89,-1.34 0.59,-4 3.1,-2.1 Z M 1438.44,454.02 c -0.54,-1.89 -2.85,-5.04 -2.23,-6.91 c 0.51,-0.54 0.95,-1.12 1.33,-1.76 c -0.12,1.06 0.26,1.87 1.15,2.45 c -0.34,0.5 -0.63,1.06 -0.87,1.66 c 0.09,1.67 2.23,3.08 0.62,4.56 Z M 61.3,455.28 c -0.94,2.25 -1.88,4.5 -2.82,6.75 c -0.36,-0.83 -0.4,-1.7 -0.13,-2.59 c -0.42,-0.56 -0.77,-1.12 -1.04,-1.7 c 0.89,-0.55 1.27,-1.34 1.16,-2.38 c 1.33,1.98 1.09,1.6 2.25,-0.04 c 0.19,-0.02 0.38,-0.03 0.58,-0.04 Z M 1448.43,1021.99 c 0.43,0.39 0.62,0.88 0.56,1.46 c -0.62,2.05 -1.33,4.07 -2.11,6.06 c 0.22,0.62 0.5,1.19 0.82,1.71 c -0.86,0.55 -1.24,1.34 -1.16,2.36 c -0.5,-0.76 -1.14,-1.34 -1.94,-1.76 c 1.24,-3.29 2.52,-6.57 3.83,-9.83 Z M 64.36,1051.92 c 1,2.31 1.99,4.63 2.97,6.95 c -0.73,0.43 -1.36,0.99 -1.87,1.68 c -0.06,-0.37 -0.07,-0.74 -0.04,-1.12 c -0.68,-1.08 -1.38,-2.15 -2.09,-3.2 c -0.02,-0.44 0.17,-0.76 0.58,-0.97 c 0.04,-0.89 0.06,-1.8 0.06,-2.71 c 0.13,-0.21 0.26,-0.42 0.39,-0.63 Z M 1424.45,1077.05 c 1.37,0.22 0.55,1.47 1.17,2.42 c -0.48,0.86 -0.78,1.81 -0.89,2.83 c -0.52,1.27 -1.94,0.01 -2.94,0.12 c 0.84,-1.82 1.72,-3.61 2.66,-5.37 Z M 1297.64,1261.92 c 0.3,0.44 0.54,0.91 0.72,1.4 c -0.56,1.35 -1.54,2.21 -2.95,2.6 c -1.25,1.82 -0.54,1.71 -2.44,0.88 c 1.53,-1.65 3.09,-3.28 4.67,-4.88 Z M 1259.33,1300 c 0.36,0.71 0.75,1.37 1.15,1.98 c -1.22,1.08 -2.32,3.06 -3.93,3.51 c -0.51,-0.65 -1.17,-0.95 -1.99,-0.9 c 1.59,-1.54 3.18,-3.07 4.77,-4.59 Z M 1081.84,1422.6 c 0.37,0.86 0.98,1.48 1.84,1.88 c -0.39,0.1 -0.77,0.16 -1.17,0.16 c -2.13,1.35 -4.37,2.46 -6.73,3.34 c -0.56,0.98 -1.4,1.6 -2.5,1.84 c -0.54,-0.39 -1.13,-0.71 -1.75,-0.94 c -0.9,0.28 -1.76,0.24 -2.61,-0.12 c 4.29,-2.09 8.59,-4.14 12.92,-6.16 Z M 1025.74,1447.59 c 0.44,0.82 1.06,1.44 1.88,1.88 c -0.66,0.64 -1.43,1.11 -2.32,1.41 c -0.56,-0.43 -1.13,-0.86 -1.7,-1.29 c -2.63,0.38 -8.28,3.75 -10.58,3.25 c 0.27,-0.53 0.71,-0.87 1.31,-1.01 c 3.78,-1.48 7.58,-2.89 11.41,-4.24 Z"/></g>
<g><path fill="#2d6082" fill-opacity="0.039" stroke="#2d6082" stroke-width="0.5" stroke-opacity="0.039" d="M 1057.72,63.84 c 0.61,-0.13 1.21,-0.1 1.81,0.11 c 0.81,1.05 -0.3,0.65 -0.76,1.64 c 1.49,0.67 3.01,1.27 4.56,1.79 c 1,-0.38 2.02,-0.5 3.05,-0.34 c 1,0.74 2.06,1.4 3.16,2 c 1.9,0.74 3.73,1.55 5.5,2.42 c -0.57,0.55 -1.23,0.96 -1.98,1.26 c -0.07,0.19 -0.14,0.38 -0.21,0.57 c -5.72,-2.5 -11.34,-5.18 -16.84,-8.05 c 0.59,-0.33 1.93,-0.43 1.71,-1.4 Z M 1411.55,397.91 c -5.22,-9.61 -10.53,-19.17 -15.93,-28.68 c 1.94,-1.79 1.57,-1.39 3.17,0.44 c 0.5,1.16 0.92,2.35 1.27,3.57 c 3.76,2.14 1.72,6.21 5.75,8.43 c 1.49,2.79 2.13,7.54 5.04,9.03 c 0.3,1.27 0.94,3.03 1.97,3.89 c -0.18,0.74 0.03,3.54 -1.27,3.32 Z M 92.28,1108.87 c 4.8,8.75 9.75,17.4 14.85,25.98 c -1.2,-0.07 -2.38,-0.33 -3.55,-0.77 c -0.51,-1.43 -1.04,-2.87 -1.57,-4.32 c -2.02,-1.66 -7.12,-10.47 -7.51,-13.48 c -0.49,-0.67 -1.13,-1.16 -1.92,-1.47 c -0.28,-0.98 -0.81,-1.82 -1.59,-2.52 c -0.83,-1.68 1.16,-1.74 1.29,-3.42 Z M 1371.59,1168.95 c 2.82,0.48 1.72,3.07 0.05,4.16 c -0.23,2.74 -3.08,2.08 -2.79,4.21 c -0.55,0.28 -1.11,0.24 -1.65,-0.12 c 0.79,1.75 -0.67,1.35 -0.63,2.97 c -0.43,0.35 -0.9,0.35 -1.41,0 c 1.15,1.89 0.29,2.37 -1.25,3.2 c -0.21,0.56 -0.32,1.13 -0.34,1.72 c -1.31,0.99 -1.24,3.48 -3.37,2.12 c 0.39,0.55 0.55,1.17 0.48,1.84 c -0.99,0.67 -1.84,1.48 -2.56,2.43 c -0.3,-0.08 -0.6,-0.16 -0.89,-0.24 c 0.31,0.56 0.36,1.14 0.15,1.73 c -0.65,-0.29 -1.25,-0.66 -1.81,-1.12 c 5.41,-7.59 10.75,-15.22 16.02,-22.9 Z"/></g>
<g><path fill="#1c608b" fill-opacity="0.031" stroke="#1c608b" stroke-width="0.5" stroke-opacity="0.031" d="M 1194.65,1353.68 c 0.13,0.68 0.53,1.11 1.18,1.28 c 0.1,1.14 -0.44,1.75 -1.62,1.82 c -1.05,1.45 -1.04,0.8 -2.27,1.39 c -0.73,1 -1.61,1.87 -2.63,2.6 c -1.65,0.03 -1.44,0.73 -2.16,1.9 c -0.74,0.28 -1.47,0.58 -2.19,0.91 c -0.64,1.22 -1.55,1.44 -2.74,0.64 c 1.04,2.02 -0.13,1.65 -1.45,1.89 c -1.66,1.51 -0.48,1.82 -3.01,1.96 c -0.52,0.55 -0.99,1.13 -1.43,1.74 c -3.48,-0.05 -3.07,4.55 -7.13,3.38 c 1.45,2.17 -1.8,2.3 -3.01,2 c 1.14,2.01 -0.08,1.73 -1.42,1.9 c -0.58,0.53 -1.08,1.12 -1.51,1.79 c -2.59,-0.17 -0.82,2.76 -3.73,2.01 c -0.57,0.6 -1.23,1.04 -1.99,1.3 c -0.58,-0.52 -1.03,-1.14 -1.36,-1.86 c 13.09,-8.51 25.91,-17.39 38.47,-26.65 Z M 1152.78,1382.58 c 0.44,0.55 0.83,1.11 1.18,1.69 c -0.8,1.08 -1.87,1.66 -3.2,1.72 c -2.62,3.4 -7.22,3.76 -9.5,6.73 c -1.23,0.33 -2.44,0.71 -3.61,1.14 c -0.85,1.81 -2.3,2.69 -4.37,2.65 c -0.74,0.67 -1.4,1.42 -1.98,2.23 c -2.67,1.23 -5.18,1.47 -6.96,4.07 c -3.82,0.18 -4.84,3.76 -8.62,4.19 c -0.56,0.57 -1.02,1.23 -1.38,1.96 c -0.83,0.13 -1.67,0.24 -2.51,0.34 c -1.62,1.34 -4.95,3.4 -7.11,3.69 c -1.33,0.58 -0.59,2.38 -2.15,2.2 c -0.83,-0.74 -0.27,-2.48 -1.64,-2.37 c 17.64,-9.47 34.92,-19.55 51.85,-30.24 Z"/></g>
<g><path fill="#005b9a" fill-opacity="0.169" stroke="#005b9a" stroke-width="0.5" stroke-opacity="0.169" d="M 604.13,14.83 c -4.68,0.81 -9.36,1.64 -14.04,2.49 c -0.14,-0.49 0.02,-0.87 0.47,-1.13 c 2.29,-0.47 4.61,-0.84 6.94,-1.11 c 0.76,-0.19 1.45,-0.52 2.07,-1.01 c 1.64,-0.39 3.16,-0.13 4.56,0.76 Z M 576.02,20.86 c -4.49,1.21 -9.02,2.25 -13.57,3.11 c -1.74,0.56 -3.46,1.15 -5.16,1.76 c -0.21,-0.58 -0.12,-1.11 0.26,-1.58 c 1.14,-0.01 2.18,-0.35 3.09,-1.02 c 0.92,-0.11 1.83,-0.17 2.75,-0.2 c 3.31,-1.09 6.65,-2.06 10.02,-2.94 c 0.64,0 2.86,-0.46 2.61,0.87 Z M 557.29,25.73 c -5.98,1.55 -11.97,3.08 -17.98,4.59 c -0.27,-0.52 -0.19,-0.97 0.23,-1.34 c 1.15,0.09 2.17,-0.22 3.07,-0.93 c 0.9,-0.1 1.81,-0.16 2.72,-0.19 c 1.41,-0.62 2.85,-1.16 4.31,-1.62 c 0.9,-0.13 1.81,-0.24 2.72,-0.35 c 1.58,-1.19 3.22,-1.24 4.93,-0.16 Z M 950.75,27.2 c 1.21,-0.17 2.43,-0.18 3.64,-0.01 c 1.44,0.49 2.85,1.05 4.22,1.69 c 0.94,0.18 1.88,0.26 2.84,0.24 c 1.43,1.36 2.97,0.24 4.19,1.74 c 0.95,0.15 1.91,0.23 2.88,0.23 c 0.85,0.75 1.85,1.08 2.99,0.97 c 1.48,1.49 2.64,0.34 4.09,1.84 c 1.64,0.27 3.25,0.65 4.82,1.13 c 0.6,0.52 1.26,0.96 1.96,1.32 c 3.55,1.03 7.06,2.17 10.53,3.42 c 0.83,0.15 1.67,0.24 2.51,0.29 c 0.84,0.8 1.85,1.11 3.01,0.93 c 1.73,0.64 3.41,1.4 5.05,2.26 c 0.9,-0.12 1.47,-1.91 2.24,-0.85 c -1.12,1.99 -0.51,1.09 1.17,2.06 c -0.06,0.21 -0.12,0.42 -0.18,0.63 c -0.68,-0.14 -1.37,-0.22 -2.06,-0.24 c -8.13,-2.98 -16.34,-5.8 -24.62,-8.45 c -9.45,-2.98 -18.93,-5.83 -28.45,-8.54 c -0.36,-0.12 -0.64,-0.34 -0.83,-0.66 Z M 1013.02,1452.84 c 0.16,1.51 -1.74,0.92 -2.53,2.11 c -1.68,0.15 -6.66,0.9 -7.34,2.52 c 0.95,0.91 0.82,1.32 -0.4,1.24 c -0.34,-0.41 -0.76,-0.72 -1.26,-0.93 c -1.61,0.87 -3.29,1.6 -5.01,2.2 c -1.21,-0.24 -2.22,0.09 -3.03,1 c -2.91,0.02 -6.76,1.06 -8.91,3.04 c -1.18,-0.18 -2.18,0.13 -3.03,0.95 c -1.22,-0.26 -2.24,0.08 -3.06,1 c -1.16,-0.12 -2.15,0.23 -2.97,1.05 c -1.16,-0.2 -2.15,0.11 -2.96,0.96 c -2.05,0.16 -2.44,-0.39 -4.08,0.95 c -1.15,-0.06 -2.13,0.3 -2.94,1.09 c -1.11,-0.11 -2.11,0.17 -3,0.83 c -1.45,0.01 -2.87,0.18 -4.28,0.53 c -2.47,0.54 -3.67,2.7 -6.32,0.87 c 8.73,-2.44 17.43,-5.02 26.1,-7.76 c 7.52,-2.46 15.03,-4.95 22.53,-7.45 c 3.35,-1.34 6.72,-2.62 10.12,-3.86 c 0.77,-0.23 1.56,-0.34 2.37,-0.34 Z"/></g>
<g><path fill="#2f6281" fill-opacity="0.047" stroke="#2f6281" stroke-width="0.5" stroke-opacity="0.047" d="M 1361,316 c 1.06,0.41 2.16,0.72 3.27,0.93 c 0.3,0.63 0.26,1.26 -0.09,1.89 c 0.57,-0.35 1.15,-0.39 1.74,-0.13 c 0.27,1.03 0.37,2.06 0.3,3.09 c 1.92,-0.89 1.11,1.1 2.98,1.52 c 0.56,0.8 0.57,1.62 0.04,2.46 c 0.32,-0.11 0.64,-0.23 0.96,-0.34 c 0.27,0.85 0.68,1.66 1.23,2.44 c -0.07,0.3 -0.14,0.6 -0.21,0.9 c 2.22,-1.52 3.08,1.5 1.95,3.07 c 3.17,-1.75 0.47,1.76 2.99,1.02 c -0.32,0.64 -0.63,1.28 -0.94,1.92 c 2.48,-1.51 2.79,1.44 2.01,3 c 2.94,-1.3 -0.34,1.91 2.93,1.21 c -0.31,0.59 -0.62,1.19 -0.93,1.79 c 0.31,-0.1 0.61,-0.21 0.92,-0.31 c 0.31,0.83 0.74,1.62 1.29,2.37 c -0.07,0.31 -0.14,0.62 -0.21,0.94 c 0.53,-0.4 1.07,-0.46 1.62,-0.19 c -0.2,1.12 0.21,1.56 1.24,1.3 c -0.28,0.62 -0.56,1.24 -0.84,1.86 c 0.56,-0.34 1.11,-0.35 1.64,-0.03 c 0.46,1.09 0.9,2.2 1.31,3.31 c 0.3,-0.02 0.61,-0.05 0.91,-0.08 c -0.3,0.61 -0.59,1.22 -0.89,1.83 c 2.8,-1.76 0.45,1.84 2.92,1.13 c -1.84,2.49 1.21,1.8 0.07,3.89 c 2.88,-1.87 0.44,1.79 2.9,1.02 c -0.29,0.65 -0.59,1.3 -0.88,1.95 c 0.53,-0.38 1.07,-0.44 1.63,-0.19 c 0.53,1.18 0.94,2.41 1.23,3.68 c 0.55,1.27 2.29,0.65 2.13,2.14 c -0.79,0.29 -1.58,0.59 -2.36,0.88 c -10.41,-17.11 -21.36,-33.87 -32.86,-50.27 Z"/></g>
<g><path fill="#005a9a" fill-opacity="0.184" stroke="#005a9a" stroke-width="0.5" stroke-opacity="0.184" d="M 1039.82,58.28 c 1.13,-0.28 2.29,-0.4 3.45,-0.35 c -0.98,1.46 1.46,1.04 2.05,0.76 c -0.89,1.6 1.16,1.49 2.01,1.03 c -0.82,2.13 2.09,1.51 1.49,0.08 c 0.71,0.06 1.33,0.29 1.88,0.69 c -1.29,1.74 0.26,1.56 1.64,1.5 c -1.06,1.46 1.52,0.95 2.06,0.66 c -1.02,1.65 1.11,1.45 1.96,0.98 c -0.12,0.54 -0.24,1.07 -0.35,1.61 c -0.79,-0.13 -1.56,-0.33 -2.31,-0.61 c -4.7,-2 -9.32,-4.12 -13.88,-6.35 Z M 12.52,880.89 c 0.09,1.96 0.48,3.86 1.18,5.68 c 0.04,1.01 0.07,2.02 0.07,3.03 c 0.36,1.01 0.73,2.01 1.08,3.02 c 0.03,0.98 0.1,1.97 0.22,2.94 c 0.66,3.72 1.53,7.39 2.63,11.01 c -0.12,1.8 0.12,3.56 0.71,5.26 c -0.52,0.16 -0.94,0.02 -1.26,-0.41 c -0.35,-2.32 -0.71,-4.63 -1.06,-6.95 c -0.31,-0.98 -0.66,-1.95 -1.05,-2.89 c 0.03,-0.99 -0.01,-1.97 -0.12,-2.94 c -1.59,-1.56 -0.64,-3.13 -1.02,-5.04 c -0.99,-1.22 -1.29,-2.61 -0.88,-4.17 c -0.3,-0.96 -0.62,-1.93 -0.94,-2.89 c 0.06,-1.84 -0.71,-4.02 0.44,-5.65 Z M 881.7,1488.84 c 1.03,2.01 -3.46,0.83 -4.25,1.13 c -0.76,0.13 -1.45,0.44 -2.06,0.94 c -1.99,0.5 -4.35,-0.64 -5.98,0.99 c -1.31,0.08 -2.62,0.08 -3.94,0.02 c -1.01,0.26 -1.99,0.59 -2.95,1 c -2.43,-0.23 -4.76,0.12 -6.99,1.04 c -1.68,0.08 -3.36,0.06 -5.04,-0.05 c -1,0.29 -1.98,0.63 -2.95,1.02 c -1.99,0.09 -3.97,0.14 -5.96,0.15 c -1.92,1.76 -5.66,0.55 -8.08,0.86 c -0.99,0.27 -1.96,0.6 -2.9,0.99 c -1.81,-0.42 -7.7,1 -8.7,-0.54 c 2.21,-0.41 4.44,-0.52 6.68,-0.34 c 3.22,-0.88 6.5,-1.23 9.83,-1.05 c 0.99,-0.43 2.02,-0.69 3.1,-0.79 c 6.3,-0.79 12.62,-1.6 18.96,-2.41 c 6.63,-1.16 13.29,-2.23 19.95,-3.22 c 0.45,-0.01 0.87,0.08 1.28,0.26 Z"/></g>
<g><path fill="#025899" fill-opacity="0.145" stroke="#025899" stroke-width="0.5" stroke-opacity="0.145" d="M 482.51,1450.52 c 14.58,5.5 29.3,10.6 44.16,15.3 c 0.64,0.15 1.15,0.49 1.55,1 c -3.66,0.31 -8.27,-3.21 -12.78,-2.68 c -1.99,-1.34 -3.72,-1.48 -5.94,-2.11 c -1.27,-1 -1.95,-2.11 -3.15,-0.24 c -1.72,0.58 -0.99,-0.74 -0.45,-1.41 c -0.15,-0.49 -0.48,-0.79 -1.01,-0.88 c -2.61,-0.71 -10.51,-3.58 -12.37,-3.52 c -1.44,-1.27 -3.11,-2.15 -5,-2.64 c -1.03,-0.12 -2.01,0.06 -2.95,0.55 c -1.6,0.13 -1.8,-0.37 -0.61,-1.49 c -0.58,-0.34 -1.16,-0.7 -1.72,-1.06 c 0.09,-0.28 0.18,-0.55 0.27,-0.82 Z M 556.26,1474.8 c 2.4,0.18 4.75,0.67 7.04,1.46 c -0.54,0.3 -1.11,0.44 -1.72,0.43 c -1.62,-0.58 -3.29,-0.83 -5.01,-0.77 c -0.45,-0.27 -0.55,-0.64 -0.31,-1.12 Z M 563.3,1476.26 c 5.26,1.27 10.53,2.56 15.8,3.89 c -2.04,1.78 -2.78,0.56 -4.7,-0.17 c -2.25,-0.42 -4.51,-0.78 -6.8,-1.08 c -1.58,-1.53 -2,-0.68 -3.98,-1.04 c -0.41,-0.47 -0.52,-1 -0.32,-1.6 Z"/></g>
<g><path fill="#2c6382" fill-opacity="0.055" stroke="#2c6382" stroke-width="0.5" stroke-opacity="0.055" d="M 434.07,70.3 c -6.33,2.96 -12.62,6.02 -18.86,9.18 c -0.89,-0.18 -2.81,-0.34 -1.86,-1.79 c -0.53,-0.96 0.51,-0.5 1.1,-0.6 c 5.2,-2.63 10.24,-5.14 15.19,-8.25 c 0.8,0.09 1.42,0.5 1.86,1.23 c 0.88,-0.11 1.74,-0.03 2.57,0.23 Z M 1435.55,1052.96 c 0.51,0.74 0.68,1.57 0.5,2.48 c 0.66,0.5 1.05,1.13 1.17,1.9 c -1.76,3.03 -0.92,2.96 -4.46,1.97 c 0.92,-2.12 1.85,-4.24 2.79,-6.35 Z"/></g>
<g><path fill="#005b9a" fill-opacity="0.227" stroke="#005b9a" stroke-width="0.5" stroke-opacity="0.227" d="M 1447.69,476.31 c 1.1,-0.64 1.65,1.74 2.27,2.29 c 0.01,2.6 0.49,3.08 1.96,4.98 c -0.55,2.73 2.4,2.25 0.49,5.51 c -1.47,-4.3 -3.04,-8.57 -4.72,-12.78 Z M 1481.52,587.5 c 2.16,-1.02 1.16,1.87 1.48,2.89 c 1.68,1.74 0.67,2.91 1.1,5.06 c 0.65,1.95 1.23,3.93 1.73,5.94 c 0.14,2.22 0.28,4.43 0.42,6.63 c -0.53,-0.38 -0.86,-0.9 -0.98,-1.56 c -0.49,-2.63 -0.87,-5.27 -1.14,-7.95 c -0.39,-0.66 -0.69,-1.36 -0.9,-2.09 c -0.57,-2.98 -1.14,-5.95 -1.71,-8.92 Z M 584.11,1481.65 c 1.79,0.01 3.55,0.22 5.29,0.63 c 2.04,0.7 4.11,1.28 6.2,1.75 c 2.63,0.42 5.25,0.83 7.87,1.23 c 0.67,0.11 1.2,0.44 1.6,0.97 c -1.89,0.05 -3.79,-0.07 -5.67,-0.34 c -3.81,-0.72 -7.57,-1.65 -11.29,-2.79 c -0.97,-0.38 -4.63,0.55 -4,-1.45 Z"/></g>
<g><path fill="#275c86" fill-opacity="0.031" stroke="#275c86" stroke-width="0.5" stroke-opacity="0.031" d="M 1294.86,235.39 c 0.92,0.01 1.77,0.28 2.56,0.79 c 1.6,1.36 2.24,2.75 4.35,3.52 c 0.36,0.96 0.76,1.91 1.18,2.85 c 0.83,0.84 1.65,1.68 2.47,2.53 c 1.79,1.02 2.91,0.88 4.32,2.69 c 1.31,1.8 2.37,3.74 3.18,5.81 c 0.31,0.37 0.67,0.68 1.09,0.92 c 1.94,0.57 3.53,1.68 4.77,3.32 c 0.99,1.1 -0.34,2.02 -1.16,2.59 c -7.49,-8.43 -15.08,-16.77 -22.76,-25.02 Z"/></g>
<g><path fill="#005a9a" fill-opacity="0.196" stroke="#005a9a" stroke-width="0.5" stroke-opacity="0.196" d="M 14.87,606.93 c -0.65,2.88 -1.28,5.76 -1.89,8.65 c 0.12,2.04 -0.28,3.97 -1.2,5.79 c 0.32,2.12 0.03,4.15 -0.88,6.09 c -0.12,3.02 -0.47,5.99 -1.05,8.92 c -0.32,1.37 -0.67,2.73 -1.07,4.08 c 0.49,2.53 -0.27,4.63 -1,6.99 c 0.18,1.23 0.15,2.46 -0.09,3.67 c -1.29,-1.48 -0.48,-3.83 -0.69,-5.62 c 0.32,-1 0.66,-1.99 1.05,-2.97 c -0.08,-1.98 -0.07,-3.95 0.02,-5.93 c 0.29,-0.4 0.58,-0.81 0.87,-1.22 c 0.47,-1.99 -0.36,-4.2 0.99,-5.92 c 0.12,-1.32 0.21,-2.65 0.28,-3.97 c 0.87,-1.92 1.13,-3.94 0.78,-6.04 c 0.11,-0.74 0.41,-1.41 0.89,-1.99 c 0.2,-2.09 -0.18,-3.16 1.02,-5 c 0.44,-2.27 -0.41,-4.23 1.97,-5.53 Z"/></g>
<g><path fill="#256086" fill-opacity="0.027" stroke="#256086" stroke-width="0.5" stroke-opacity="0.027" d="M 295.03,154.66 c -6.33,4.87 -12.6,9.8 -18.82,14.8 c -2.97,-3 0.85,-1.09 -0.38,-3.49 c 0.3,0.08 0.6,0.16 0.9,0.25 c 1.31,-1.02 2.51,-2.16 3.59,-3.44 c 3.53,-2.11 7.63,-5.51 10.52,-8.48 c 1.47,-0.65 3.43,-2.01 4.19,0.36 Z"/></g>
<g><path fill="#085996" fill-opacity="0.137" stroke="#085996" stroke-width="0.5" stroke-opacity="0.137" d="M 1006.71,45.09 c 1.93,0.34 3.87,0.62 5.81,0.86 c 1.72,1.46 3.7,2.4 5.94,2.83 c 0.68,-0.21 1.35,-0.46 2,-0.75 c 1.55,-0.1 1.76,0.42 0.63,1.54 c 0.43,1.31 3.3,1.2 4.37,1.39 c 0.66,0.53 1.37,0.94 2.15,1.23 c 1.29,0.25 2.57,0.2 3.85,-0.17 c 1.27,1.23 -2.27,1.64 0.91,2.56 c 1.39,-0.01 2.76,-0.19 4.11,-0.57 c 0.92,0.67 -0.09,0.77 -0.35,1.62 c 0.58,1.78 4.69,0.55 3.69,2.65 c -10.47,-4.1 -20.96,-8.13 -31.49,-12.08 c -0.65,-0.22 -1.19,-0.59 -1.62,-1.11 Z"/></g>
<g><path fill="#215e89" fill-opacity="0.027" stroke="#215e89" stroke-width="0.5" stroke-opacity="0.027" d="M 197.02,244.55 c -5.87,6.56 -11.7,13.14 -17.51,19.75 c -5.22,-2.31 3.73,-4.46 4.28,-7.01 c -0.37,-4.49 5.03,-4.87 7.28,-7.73 c 0.86,-2.04 1.94,-3.96 3.23,-5.76 c 0.78,-1.09 2.11,0.13 2.72,0.75 Z"/></g>
<g><path fill="#316380" fill-opacity="0.039" stroke="#316380" stroke-width="0.5" stroke-opacity="0.039" d="M 1401.9,1120 c 0.57,1.36 2.05,1.72 1.09,3.35 c -0.48,0.29 -0.83,0.7 -1.05,1.21 c -0.4,0.9 -0.73,1.83 -1,2.8 c -0.57,0.27 -1.14,0.23 -1.71,-0.12 c 0.07,0.32 0.14,0.63 0.21,0.94 c -0.33,1.5 -0.86,2.9 -1.59,4.22 c -0.55,0.26 -1.09,0.21 -1.62,-0.16 c 1.56,3.26 -1.74,2.94 -1.4,5.1 c -0.53,0.29 -1.07,0.25 -1.6,-0.1 c 0.31,0.58 0.37,1.17 0.15,1.77 c -0.64,-0.31 -1.25,-0.69 -1.82,-1.13 c 3.39,-5.99 6.84,-11.95 10.34,-17.88 Z"/></g>
<g><path fill="#20598a" fill-opacity="0.027" stroke="#20598a" stroke-width="0.5" stroke-opacity="0.027" d="M 272.28,1327.58 c 5.9,4.73 11.8,9.46 17.7,14.19 c -1.82,1.15 1.03,0.99 -0.42,2.38 c -0.79,-0.15 -1.39,-0.6 -1.81,-1.35 c -1.35,-0.61 -2.36,-1.59 -3.03,-2.95 c -2.61,-1.47 -3.47,-1.19 -5.05,-4.07 c -2.65,-1.22 -3.48,-1.33 -4.99,-3.98 c -1.15,-0.59 -2.3,-1.16 -3.45,-1.73 c -0.67,-1.4 1.35,-0.71 1.05,-2.49 Z"/></g>
<g><path fill="#174f90" fill-opacity="0.031" stroke="#174f90" stroke-width="0.5" stroke-opacity="0.031" d="M 198.24,1256.99 c 2.98,3.2 5.95,6.4 8.91,9.62 c -1.14,-0.08 -2.17,-0.49 -3.09,-1.21 c -1.62,-1.33 -3.18,-2.75 -4.67,-4.25 c -0.29,-0.7 -0.64,-1.37 -1.05,-2.01 c -2.35,-0.85 -0.72,-0.84 -0.1,-2.15 Z M 1097.85,1414.48 c 4.52,2.27 0.61,2.82 -1.74,4.23 c -0.53,0.12 -1.06,0.15 -1.6,0.11 c -2.08,1.12 -4.13,2.24 -6.15,3.36 c -1.27,-1.29 1.36,-1.34 -0.19,-2.81 c 3.22,-1.66 6.44,-3.29 9.68,-4.89 Z"/></g>
<g><path fill="#2b5884" fill-opacity="0.024" stroke="#2b5884" stroke-width="0.5" stroke-opacity="0.024" d="M 1253.71,195.02 c -5.53,-4.95 -11.09,-9.87 -16.68,-14.74 c 0.67,-1.57 1.72,-1.92 3.16,-1.03 c 1.02,1.32 2.17,2.52 3.46,3.58 c 0.34,1.26 0.94,2.37 1.79,3.35 c 1.13,0.13 2.24,0.31 3.33,0.55 c 1.09,1.56 2.38,2.93 3.87,4.12 c 0.26,0.73 0.59,1.42 0.99,2.07 c 1.85,0.43 0.39,1.01 0.08,2.1 Z"/></g>
<g><path fill="#35647e" fill-opacity="0.043" stroke="#35647e" stroke-width="0.5" stroke-opacity="0.043" d="M 69.25,1062.94 c 2.64,5.56 5.28,11.11 7.92,16.67 c -0.79,0.56 -1.65,0.74 -2.58,0.52 c -0.85,-2.09 -1.77,-4.18 -2.74,-6.26 c -1.14,-1.66 -2.07,-3.42 -2.8,-5.29 c -0.43,-1.14 -1.37,-0.61 -1.15,-1.99 c 2.22,-1.05 0.61,-1.87 1.35,-3.65 Z"/></g>
<g><path fill="#005d9a" fill-opacity="0.188" stroke="#005d9a" stroke-width="0.5" stroke-opacity="0.188" d="M 23.57,567.55 c -1.05,4.7 -2.26,9.38 -3.62,14.03 c -0.66,3.93 -1.41,7.84 -2.24,11.75 c -0.88,1.14 -1.15,2.4 -0.83,3.79 c -1.26,-1.61 -1.24,-3.19 0.04,-4.76 c 0.44,-2.13 -0.57,-3.13 0.99,-4.94 c 0.34,-1.87 -0.4,-2.47 0.94,-4.04 c -0.05,-1.75 0.29,-3.41 1.04,-4.98 c 0.43,-2.24 0.87,-4.48 1.32,-6.72 c 0.24,-0.4 0.47,-0.81 0.68,-1.22 c 0.32,-1.11 -0.66,-4.21 1.68,-2.91 Z"/></g>
<g><path fill="#005b9b" fill-opacity="0.282" d="M 1429.72,434.11 c 0.55,-0.02 1.09,-0.03 1.63,-0.05 c -0.3,0.39 -0.39,0.83 -0.28,1.31 c 1.19,1.96 2.16,4.03 2.9,6.2 c 0.3,0.39 0.67,0.46 1.11,0.22 c -1.26,1.39 0.81,3.81 1.13,5.32 c -0.67,-0.2 -1.2,-0.59 -1.58,-1.18 c -1.54,-3.99 -3.17,-7.92 -4.91,-11.82 Z M 1496.1,682.93 c 0.67,0.21 1.04,0.67 1.1,1.41 c 0.77,4.02 1.06,8.09 0.85,12.19 c -0.03,0.92 -0.26,1.8 -0.67,2.63 c -0.42,-3.21 -0.53,-6.42 -0.34,-9.64 c -0.61,-2.15 -0.92,-4.35 -0.94,-6.59 Z"/></g>
<g><path fill="#285d85" fill-opacity="0.035" stroke="#285d85" stroke-width="0.5" stroke-opacity="0.035" d="M 144.2,1190.94 c 3.39,4.59 6.78,9.19 10.18,13.78 c -2.11,2.1 -3.19,1.65 -3.22,-1.37 c -1.97,-0.65 -2.96,-1.97 -2.96,-3.97 c -2.06,-0.65 -3.01,-2.02 -2.84,-4.12 c -1.28,-1.2 -1.66,-2.64 -1.16,-4.32 Z"/></g>
<g><path fill="#296183" fill-opacity="0.055" stroke="#296183" stroke-width="0.5" stroke-opacity="0.055" d="M 1422.88,420.05 c -1.91,-3.59 -3.69,-7.24 -5.34,-10.95 c 0.42,-0.81 1.22,-3.55 2.46,-1.68 c 1.32,2.78 2.72,5.53 4.2,8.23 c 0.39,1.78 -1.38,2.52 -1.32,4.4 Z"/></g>
<g><path fill="#1e578b" fill-opacity="0.024" stroke="#1e578b" stroke-width="0.5" stroke-opacity="0.024" d="M 183.52,1240.67 c 3.9,4.23 7.73,8.51 11.51,12.85 c -1.41,1.6 -2.65,1.47 -3.73,-0.39 c -1.46,-3.46 -2.42,-6.19 -6.28,-7.61 c -1.63,-1.44 -5.09,-3.04 -1.5,-4.85 Z"/></g>
<g><path fill="#266485" fill-opacity="0.031" stroke="#266485" stroke-width="0.5" stroke-opacity="0.031" d="M 159.27,1210.99 c 3.41,4.24 6.79,8.51 10.13,12.8 c -0.85,0.85 -2.33,2.26 -3.07,0.33 c 0.14,-0.91 0.08,-1.79 -0.2,-2.63 c -1.57,-0.32 -2.83,-1.12 -3.78,-2.41 c 0.13,-0.89 0.04,-1.75 -0.25,-2.56 c -2.21,-0.53 -6.75,-3.64 -2.83,-5.53 Z"/></g>
<g><path fill="#316380" fill-opacity="0.031" stroke="#316380" stroke-width="0.5" stroke-opacity="0.031" d="M 129.26,1169.8 c 2.43,3.31 4.77,6.69 7.01,10.15 c -0.43,0.96 0.46,2.41 -0.61,3.06 c -0.24,-0.6 -0.19,-1.2 0.12,-1.8 c -2.13,1.52 -1.57,-0.89 -2.25,-2.07 c 0.09,-0.3 0.17,-0.61 0.25,-0.91 c -2.03,1.29 -1.87,-0.61 -3.08,-1.5 c -0.3,-0.77 -0.41,-1.6 -0.33,-2.46 c -0.87,-0.51 -1.08,-1.19 -0.61,-2.04 c -0.62,0.3 -1.23,0.61 -1.85,0.91 c 1.02,-1.33 0.76,-2.22 -0.79,-2.68 c 0.74,-0.15 1.45,-0.37 2.14,-0.66 Z"/></g>
<g><path fill="#024f9a" fill-opacity="0.024" stroke="#024f9a" stroke-width="0.5" stroke-opacity="0.024" d="M 451.27,60.09 c -0.11,0.34 -0.21,0.69 -0.31,1.03 c -0.64,-0.09 -1.27,-0.2 -1.91,-0.31 c -0.13,-1.08 1.62,-0.74 2.22,-0.72 Z M 177.69,1233.77 c 0.76,0.88 1.52,1.75 2.28,2.63 c -1.82,1.59 -1.97,0.98 -3.52,-0.38 c -0.35,-1.13 0.06,-1.87 1.24,-2.25 Z M 1312.58,1245.5 c 0.59,0.04 1.03,0.3 1.33,0.78 c -0.51,1.45 -1.31,2.72 -2.39,3.81 c -1.14,0.49 -2.35,0.68 -3.63,0.59 c 1.57,-1.73 3.13,-3.45 4.69,-5.18 Z M 266.28,1322.51 c 0.89,0.76 1.79,1.51 2.68,2.27 c -1.59,0.26 -0.35,1.06 -0.02,1.76 c -0.25,0.46 -0.63,0.56 -1.12,0.3 c -0.88,-0.87 -1.79,-1.66 -2.73,-2.36 c 0.74,-0.48 1.13,-1.13 1.19,-1.97 Z"/></g>
<g><path fill="#306480" fill-opacity="0.063" stroke="#306480" stroke-width="0.5" stroke-opacity="0.063" d="M 109.08,362.08 c -2.49,4.4 -5.05,8.75 -7.67,13.07 c -0.03,-1.11 -0.49,-1.99 -1.36,-2.66 c 0.2,-1.05 0.76,-1.85 1.69,-2.41 c 0.69,-0.95 -0.01,-2.49 2.02,-1.33 c -0.8,-1.54 -0.47,-2.75 0.99,-3.65 c 0.24,-0.75 0.51,-1.48 0.83,-2.19 c 1.19,-0.18 2.35,-0.45 3.5,-0.83 Z"/></g>
<g><path fill="#125392" fill-opacity="0.031" stroke="#125392" stroke-width="0.5" stroke-opacity="0.031" d="M 1227.79,172.46 c -1.24,-1.04 -2.5,-2.08 -3.75,-3.12 c 1.38,-1.34 1.72,-2.5 3.15,-0.03 c 1.96,0.41 2.17,1.2 0.64,2.36 c -0.01,0.27 -0.02,0.53 -0.04,0.79 Z M 1233.74,177.44 c -1.24,-1.03 -2.48,-2.07 -3.71,-3.11 c 0.55,-0.41 1.05,-0.9 1.49,-1.46 c 0.91,0.89 1.97,1.58 3.2,2.08 c 0.86,1.19 -0.71,1.35 -0.98,2.49 Z M 250.2,1308.49 c 1.26,1.09 2.53,2.18 3.79,3.27 c -0.38,0.61 -0.88,1.09 -1.49,1.46 c -1.03,-1.05 -2.18,-1.99 -3.44,-2.81 c 0.75,-0.45 1.13,-1.09 1.14,-1.92 Z"/></g>
<g><path fill="#005c9a" fill-opacity="0.216" stroke="#005c9a" stroke-width="0.5" stroke-opacity="0.216" d="M 35.31,525.28 c -2.23,7.57 -4.41,15.17 -6.56,22.81 c -1.97,-2.46 0.55,-3.88 0.32,-6.49 c 0.64,-1.38 1.24,-2.79 1.82,-4.21 c 0.66,-2.95 1.4,-5.88 2.21,-8.79 c 0.63,-0.86 1.03,-1.82 1.2,-2.88 c 0.23,-0.38 0.57,-0.53 1.01,-0.44 Z"/></g>
<g><path fill="#00469d" fill-opacity="0.02" d="M 449.05,60.81 c -0.26,0.64 -0.52,1.28 -0.78,1.92 c -0.32,-0.49 -0.76,-0.65 -1.33,-0.46 c 0.2,-1.14 0.91,-1.63 2.11,-1.46 Z M 175.97,268.6 c -0.53,0.59 -1.07,1.18 -1.6,1.77 c -0.91,-0.17 -1.24,0.21 -0.99,1.15 c -0.91,-0.61 -1.18,-1.39 -0.83,-2.35 c 1.44,-1.68 1.73,-2.27 3.42,-0.57 Z M 1328.05,1227.41 c 0.46,-0.52 0.91,-1.05 1.35,-1.59 c 1.22,0.51 3.12,-1.73 2.47,0.51 c -1.29,1.48 -2.07,3.14 -3.82,1.08 Z M 259.33,1316.6 c 0.88,0.75 1.76,1.5 2.64,2.25 c -1,0.39 -1.1,0.98 -0.3,1.77 c -0.78,1.26 -3.18,-1.57 -3.63,-2.2 c 0.52,-0.55 0.95,-1.15 1.29,-1.82 Z"/></g>
<g><path fill="#265e86" fill-opacity="0.027" stroke="#265e86" stroke-width="0.5" stroke-opacity="0.027" d="M 272.97,172.13 c -2.84,2.51 -5.75,4.95 -8.72,7.31 c -1.02,-0.66 -1.39,-1.55 -1.11,-2.67 c 1.24,-0.36 2.4,-0.91 3.47,-1.66 c 0.9,-1.42 2.02,-2.65 3.34,-3.69 c 0.64,-0.08 1.24,0.03 1.81,0.34 c -0.44,-0.62 -0.49,-1.26 -0.16,-1.91 c 0.62,-0.32 1.09,-0.18 1.39,0.44 c 0.05,0.77 -1.19,1.39 -0.02,1.84 Z"/></g>
<g><path fill="#235f87" fill-opacity="0.035" stroke="#235f87" stroke-width="0.5" stroke-opacity="0.035" d="M 1324.87,1231.01 c 3.61,1.94 -0.49,4 -1.74,5.55 c -0.96,0.35 -1.84,0.83 -2.66,1.42 c -0.55,1.22 0.12,3.03 -1.31,3.72 c -0.69,-0.49 -1.42,-0.94 -2.18,-1.35 c 2.63,-3.12 5.26,-6.23 7.89,-9.34 Z"/></g>
<g><path fill="#005f9c" fill-opacity="0.776" d="M 747.04,1500 c -6.02,0 -12.04,0 -18.06,0 c -0.13,-0.39 0.01,-0.68 0.41,-0.85 c 3.43,-0.54 12.02,0.18 15.98,0.16 c 0.68,-0.05 1.24,0.18 1.67,0.69 Z"/></g>
<g><path fill="#226287" fill-opacity="0.027" stroke="#226287" stroke-width="0.5" stroke-opacity="0.027" d="M 1345.2,1205.65 c 1.87,0.09 2.41,0.95 1.62,2.55 c -0.99,0.72 -1.96,1.45 -2.93,2.18 c -1.31,1.9 -1.15,3.71 -3.28,1.36 c 1.51,-2.05 3.04,-4.08 4.59,-6.09 Z"/></g>
<g><path fill="#00539c" fill-opacity="0.208" stroke="#00539c" stroke-width="0.5" stroke-opacity="0.208" d="M 1273.92,214.22 c 0.73,-0.24 1.4,-0.14 2.02,0.28 c 2.06,2.32 4.25,4.5 6.57,6.54 c 0.45,0.61 0.56,1.28 0.33,2.02 c -2.97,-2.94 -5.95,-5.89 -8.92,-8.84 Z"/></g>
<g><path fill="#00589a" fill-opacity="0.141" stroke="#00589a" stroke-width="0.5" stroke-opacity="0.141" d="M 881.15,11.89 c -1.23,-0.16 -2.4,-0.52 -3.5,-1.08 c -2.7,0.12 -3.67,0 -6.11,-1.01 c -0.85,0.02 -1.71,0.03 -2.56,0.02 c 0.1,-0.81 0.57,-1.12 1.42,-0.94 c 1.06,0.08 2.13,0.12 3.2,0.11 c 0.94,0.38 1.9,0.73 2.86,1.05 c 1.63,0.18 5.22,-1.04 4.69,1.85 Z"/></g>
<g><path fill="#00599b" fill-opacity="0.125" stroke="#00599b" stroke-width="0.5" stroke-opacity="0.125" d="M 653.08,6.72 c -1.24,0.18 -2.48,0.22 -3.72,0.13 c -2.23,0.99 -4.56,1.29 -6.97,0.9 c -1.04,0.38 -2.1,0.58 -3.2,0.58 c -0.16,-0.52 -0.03,-0.96 0.39,-1.3 c 1.66,-0.04 3.32,-0.06 4.98,-0.04 c 0.98,-0.29 1.94,-0.63 2.89,-1.01 c 1.74,0.2 4.26,-0.67 5.63,0.74 Z"/></g>
<g><path fill="#00579a" fill-opacity="0.122" stroke="#00579a" stroke-width="0.5" stroke-opacity="0.122" d="M 639.19,8.33 c -0.69,1.07 -2.73,0.29 -3.76,0.44 c -0.97,0.37 -1.96,0.71 -2.96,1 c -1.86,-0.04 -3.69,0.18 -5.48,0.66 c -0.81,-0.27 -0.96,-0.72 -0.44,-1.35 c 1.3,-0.09 2.6,-0.11 3.91,-0.07 c 0.97,-0.41 1.96,-0.76 2.97,-1.03 c 1.93,-0.06 3.86,0.06 5.76,0.35 Z"/></g>
<g><path fill="#00539b" fill-opacity="0.031" stroke="#00539b" stroke-width="0.5" stroke-opacity="0.031" d="M 1304.36,1254.7 c 0.61,0 1.1,0.23 1.47,0.7 c -1.85,2.11 -3.79,4.15 -5.81,6.14 c -0.74,0.45 -1.53,0.57 -2.38,0.38 c 2.25,-2.4 4.49,-4.8 6.72,-7.22 Z"/></g>
<g><path fill="#1c618b" fill-opacity="0.027" stroke="#1c618b" stroke-width="0.5" stroke-opacity="0.027" d="M 1220.8,1333.56 c 0.38,1.15 1.8,1.27 1.01,2.59 c -1.18,0.51 -2.34,1.06 -3.5,1.64 c -0.31,0.63 -0.76,1.07 -1.37,1.33 c 0.03,-0.89 -0.41,-1.38 -1.3,-1.47 c 1.73,-1.35 3.45,-2.71 5.16,-4.09 Z"/></g>
<g><path fill="#00599a" fill-opacity="0.114" stroke="#00599a" stroke-width="0.5" stroke-opacity="0.114" d="M 539.31,30.32 c -2.52,1.09 -5.12,1.98 -7.81,2.66 c -0.84,0.19 -1.68,0.27 -2.54,0.24 c -0.21,-0.57 -0.05,-0.98 0.48,-1.23 c 1.2,0.16 2.24,-0.17 3.12,-0.97 c 1.73,0.1 3.4,-0.18 5.01,-0.84 c 0.59,-0.07 1.17,-0.03 1.74,0.14 Z"/></g>
<g><path fill="#124793" fill-opacity="0.027" stroke="#124793" stroke-width="0.5" stroke-opacity="0.027" d="M 1245.7,1312.51 c 0.16,1.27 1.87,1.28 1.01,2.52 c -1.19,0.54 -2.23,1.26 -3.1,2.15 c -0.47,-0.6 -1,-1.1 -1.6,-1.5 c 1.23,-1.06 2.46,-2.12 3.69,-3.17 Z"/></g>
<g><path fill="#125f90" fill-opacity="0.027" stroke="#125f90" stroke-width="0.5" stroke-opacity="0.027" d="M 1231.76,1324.5 c 0.33,1.19 1.87,1.37 0.97,2.63 c -1.22,0.46 -2.29,1.13 -3.19,1.99 c -0.45,-0.59 -0.96,-1.09 -1.54,-1.5 c 1.27,-1.03 2.52,-2.06 3.76,-3.12 Z"/></g>
<g><path fill="#045e98" fill-opacity="0.031" stroke="#045e98" stroke-width="0.5" stroke-opacity="0.031" d="M 171.23,1226.02 c 0.95,1.08 1.88,2.17 2.8,3.27 c -0.47,0.53 -0.94,1.07 -1.39,1.62 c -1.75,-1.06 -4.33,-3.25 -1.41,-4.89 Z"/></g>
<g><path fill="#004f9c" fill-opacity="0.129" d="M 260,183.19 c -0.8,0.8 -1.66,1.53 -2.57,2.2 c -1.08,-1.88 1.58,-1.47 -0.09,-2.61 c 0.78,-0.31 1.73,-2.62 2.49,-1.41 c -0.34,0.63 -1.32,1.74 0.17,1.82 Z"/></g>
<g><path fill="#0a5096" fill-opacity="0.063" d="M 1237.92,1319.35 c 0.67,0.37 1.35,0.72 2.02,1.07 c -1.05,0.66 -1.95,1.49 -2.71,2.48 c -1.55,0.63 -1.35,-0.67 -0.52,-1.49 c -0.1,-0.31 -0.32,-0.48 -0.66,-0.51 c 0.62,-0.51 1.24,-1.03 1.87,-1.55 Z"/></g>
<g><path fill="#1164a0" d="M 1001.18,198.2 c 0.01,-13.58 0.01,-27.16 0.01,-40.75 c 0.11,-0.93 -0.14,-1.73 -0.77,-2.41 c -39.97,-0.16 -79.96,-0.22 -119.96,-0.18 c -0.62,-0.04 -1.1,0.2 -1.42,0.73 c -0.27,68.95 -0.36,137.91 -0.28,206.89 c -0.04,1.11 0.21,2.13 0.78,3.07 c -0.4,0.29 -0.84,0.43 -1.33,0.44 c -0.35,-70.77 -0.37,-141.55 -0.06,-212.33 c 0.35,-0.41 0.8,-0.59 1.35,-0.54 c 40.9,-0.07 81.79,0.02 122.68,0.26 c 0.5,0.61 0.7,1.32 0.61,2.13 c -0.01,13.66 -0.01,27.31 0,40.97 c 0,1.07 -0.54,1.64 -1.61,1.72 Z M 762.98,227.06 c 0.13,-9.87 0.14,-19.73 0.02,-29.6 c -0.08,-0.8 0.07,-1.54 0.45,-2.21 c 0.26,7.72 0.37,15.47 0.33,23.23 c 0.03,12.74 -0.06,25.46 -0.29,38.16 c -0.35,-0.64 -0.49,-1.34 -0.44,-2.08 c 0.03,-9.17 0.01,-18.34 -0.07,-27.5 Z M 763.72,365.78 c -0.53,-0.23 -0.75,-0.65 -0.66,-1.26 c 0.07,-21.33 0.07,-42.67 0,-64 c -0.04,-0.79 0.1,-1.53 0.45,-2.22 c 0.24,22.48 0.31,44.97 0.21,67.48 Z"/></g>
<g><path fill="#005e9a" fill-opacity="0.051" stroke="#005e9a" stroke-width="0.5" stroke-opacity="0.051" d="M 1328.85,274 c -0.62,-0.75 -1.24,-1.5 -1.86,-2.25 c 0.4,-0.62 0.85,-1.18 1.36,-1.69 c 2.13,1.1 2.3,2.42 0.5,3.94 Z"/></g>
</svg>
