<svg xmlns="http://www.w3.org/2000/svg" width="1200" height="630" viewBox="0 0 1200 630">
  <defs>
    <linearGradient id="g1" x1="0%" y1="0%" x2="100%" y2="100%">
      <stop offset="0%" stop-color="#10162B"/>
      <stop offset="100%" stop-color="#1A2140"/>
    </linearGradient>
  </defs>
  <rect width="1200" height="630" fill="url(#g1)"/>
  <rect x="80" y="80" width="400" height="4" rx="2" fill="#CC001C" opacity="0.2"/>
  <rect x="80" y="100" width="280" height="3" rx="1.5" fill="#00619E" opacity="0.15"/>
  <rect x="80" y="140" width="1040" height="1" fill="#F5F6FA" opacity="0.04"/>
  <rect x="80" y="170" width="500" height="2" rx="1" fill="#F5F6FA" opacity="0.03"/>
  <rect x="80" y="190" width="450" height="2" rx="1" fill="#F5F6FA" opacity="0.03"/>
  <rect x="80" y="210" width="480" height="2" rx="1" fill="#F5F6FA" opacity="0.03"/>
  <rect x="80" y="250" width="500" height="2" rx="1" fill="#F5F6FA" opacity="0.03"/>
  <rect x="80" y="270" width="420" height="2" rx="1" fill="#F5F6FA" opacity="0.03"/>
  <rect x="80" y="290" width="460" height="2" rx="1" fill="#F5F6FA" opacity="0.03"/>
  <circle cx="1050" cy="450" r="120" fill="none" stroke="#CC001C" stroke-width="1" opacity="0.08"/>
  <circle cx="1050" cy="450" r="80" fill="none" stroke="#00619E" stroke-width="0.5" opacity="0.06"/>
  <text x="600" y="580" font-family="sans-serif" font-size="11" fill="#5C6690" opacity="0.2" text-anchor="middle">LIGA PARAGUAYA</text>
</svg>
